<?xml version="1.0" encoding="UTF-8" standalone="no"?>
<!-- Created with Inkscape (http://www.inkscape.org/) -->

<svg
   xmlns:dc="http://purl.org/dc/elements/1.1/"
   xmlns:cc="http://creativecommons.org/ns#"
   xmlns:rdf="http://www.w3.org/1999/02/22-rdf-syntax-ns#"
   xmlns:svg="http://www.w3.org/2000/svg"
   xmlns="http://www.w3.org/2000/svg"
   xmlns:sodipodi="http://sodipodi.sourceforge.net/DTD/sodipodi-0.dtd"
   xmlns:inkscape="http://www.inkscape.org/namespaces/inkscape"
   width="2800"
   height="2800"
   id="svg2"
   version="1.1"
   inkscape:version="0.48.4 r9939"
   sodipodi:docname="french fries.svg">
  <defs
     id="defs4" />
  <sodipodi:namedview
     id="base"
     pagecolor="#ffffff"
     bordercolor="#666666"
     borderopacity="1.0"
     inkscape:pageopacity="0.0"
     inkscape:pageshadow="2"
     inkscape:zoom="0.10168495"
     inkscape:cx="1763.4218"
     inkscape:cy="1255.2814"
     inkscape:document-units="px"
     inkscape:current-layer="layer1"
     showgrid="false"
     inkscape:window-width="1366"
     inkscape:window-height="706"
     inkscape:window-x="-8"
     inkscape:window-y="-8"
     inkscape:window-maximized="1"
     showguides="true"
     inkscape:guide-bbox="true" />
  <metadata
     id="metadata7">
    <rdf:RDF>
      <cc:Work
         rdf:about="">
        <dc:format>image/svg+xml</dc:format>
        <dc:type
           rdf:resource="http://purl.org/dc/dcmitype/StillImage" />
        <dc:title></dc:title>
      </cc:Work>
    </rdf:RDF>
  </metadata>
  <g
     inkscape:label="BG"
     inkscape:groupmode="layer"
     id="layer1"
     transform="translate(0,1747.6378)">
    <rect
       style="fill:#008080;fill-opacity:1;stroke:none"
       id="rect2985"
       width="2800"
       height="2800"
       x="0"
       y="-1747.6378" />
    <g
       id="g3706"
       transform="matrix(1.5875062,0,0,1.5875062,-1064.6223,109.40047)">
      <path
         inkscape:connector-curvature="0"
         id="path4297"
         d="m 1726.6413,-960.59896 c -33.8473,14.54334 -62.8355,38.18114 -94.8437,56.03125 -1.2241,3.04261 0.7625,8.07319 -0.5938,10 -7.5107,-2.35814 -13.3695,3.91817 -17.875,8.90625 -15.9492,14.67799 -31.3578,29.95944 -47.3438,44.53125 -19.9997,-13.26443 -41.0483,-29.19494 -66.0937,-29.15625 -12.4716,1.69377 -21.8499,11.19697 -30.3125,19.71875 -12.3831,-7.10785 -25.5483,-12.96462 -37.6828,-20.61711 -17.4271,-9.68045 -34.9371,-21.14797 -54.911,-24.19539 -16.5615,1.94708 -25.354,18.27121 -34.4808,30.26388 -18.9175,24.56631 -40.7127,47.38909 -56.7066,73.82987 0.7653,2.53624 -0.3015,3.54447 -2.375,4.65625 -4.2999,4.16264 -7.1567,9.63733 -8.9063,15.3125 -4.6363,-6.55247 -8.0907,-14.58997 -14.1875,-19.6875 -45.4175,-8.65658 -90.7313,-17.84591 -136.125,-26.625 -3.339,16.3651 -3.1585,33.73077 -6.5938,49.71875 -15.6473,5.95951 -22.6247,22.5545 -34.1107,33.45882 -13.4668,15.74799 -26.7321,31.71152 -39.7955,47.82243 6.4431,12.70789 13.0573,25.31445 19.5938,37.96875 -11.9065,28.61451 -23.8114,57.22963 -35.7188,85.84375 46.8544,56.41704 94.4191,112.24076 141.125,168.78125 -4.6819,3.19344 -9.3176,6.45071 -13.9688,9.6875 3.4721,6.04104 7.4661,12.51395 10.5,18.375 -27.0286,-6.58456 -56.8501,9.06949 -67.9374,34.34375 -12.1154,25.24649 -11.6482,55.45539 -3.8323,81.97731 0.3695,3.25929 5.2171,8.60308 -0.1365,9.52269 -22.2472,11.52543 -39.1654,30.61145 -55.375,49.21875 -12.4845,17.48159 -15.4547,39.72887 -14.6884,60.67812 -5.0116,15.77763 -13.1647,32.738548 -7.1866,49.509378 5.1157,18.699461 20.23,32.015984 34.4688,44.0625 4.8505,11.898532 10.7479,25.382968 23.596,30.2925114 9.7024,4.528989 17.4153,11.9669582 24.1514,20.0303536 14.9565,14.845019 36.6229,21.527781 57.5026,19.239635 21.8944,-1.770219 43.0282,-11.221818 59.25,-25.9687496 20.3719,-1.0086583 36.8778,-16.055262 46.241,-33.1836524 2.9028,-5.260214 5.416,-10.746229 7.3527,-16.441348 4.6782,35.0345204 7.966,70.63706 10.5625,105.75 -33.3569,-13.318827 -70.7367,-20.991512 -106.2574,-11.84557 -53.7461,11.714623 -101.7851,53.235062 -114.9171,107.464762 -6.9588,26.60638 -8.3873,56.04637 1.862,81.91206 12.3575,20.23701 37.2651,26.63341 59.1746,30.62882 50.9339,7.77521 101.4858,-6.62336 151.1603,-16.13918 60.9829,-13.23385 123.5611,-26.05086 186.1964,-18.14589 17.6584,0.29303 32.1493,-17.11328 30.4687,-34.46875 -0.5726,-8.8548 -1.823,-17.87903 0.6875,-26.53125 2.3946,-22.02073 -6.4154,-43.52838 -18.5938,-61.28125 -0.7203,-8.40131 -0.6101,-17.588941 0.4063,-25.781252 4.816,-2.01593 10.9738,-1.164995 16.1422,-2.361917 87.9398,-10.672596 176.8922,-12.748194 265.2641,-6.763083 -16.0018,5.392402 -32.66,11.883194 -44.5,24.375002 -8.365,11.10615 -6.1747,25.85806 -6.9688,38.75 -4.9325,22.474 -26.6466,35.38825 -37.3125,54.6875 -24.9203,39.99185 -34.0583,92.22886 -15.9063,136.71875 6.773,16.75862 18.746,32.03557 35.7414,39.2534 18.1616,8.16237 37.6878,13.31702 57.0198,17.88341 77.7459,16.15992 164.1275,-0.77942 224.9264,-52.94931 13.6942,-11.28918 26.5951,-25.38232 29.5937,-43.53125 4.3746,-22.70277 0.9448,-46.25157 -4.4687,-68.40625 -10.5549,-37.25715 -37.2442,-68.20399 -70.4376,-87.5625 -5.9886,-3.88241 -12.8999,-8.46512 -16.125,-14.46875 12.8205,0.91018 25.7791,-2.09262 36.9688,-8.25 34.737,2.92842 68.1488,-15.39306 89.6562,-41.718752 24.3152,-4.695596 41.2081,-26.637925 47.4673,-49.552644 12.0424,-28.7537356 20.3706,-62.264184 8.5953,-92.478606 -8.7614,-26.30307 -21.6579,-51.367408 -35.2188,-75.312498 5.9482,-20.19196 -5.2721,-42.71702 -22.6562,-53.4375 -10.9068,-7.13155 -24.4298,-8.33402 -37.0938,-6.34375 -23.3164,1.78085 -46.0677,8.83064 -67.0312,19.125 19.8714,-46.95928 44.8916,-91.52222 71.1562,-135.25 -3.6329,-6.63368 -7.4748,-13.13779 -11.0625,-19.78125 33.0314,-27.85403 66.0618,-55.70915 99.0937,-83.5625 3.71,-27.41532 8.2404,-54.70969 12.375,-82.0625 -15.2639,-10.04293 -33.1981,-14.76519 -48.5,-24.75 12.4517,-19.69479 29.1122,-37.84844 35.4376,-60.84375 0.073,-18.26029 -15.842,-31.53496 -17.375,-49.375 -1.5871,-4.96672 -5.4085,-11.9216 0.2666,-15.76083 13.9862,-18.12985 28.8877,-35.4323 45.6396,-51.08292 -14.1318,-42.15741 -17.0088,-89.53876 -43.7188,-126.46875 -12.2709,-11.03128 -30.3507,-7.31337 -44.6874,-3.09375 -27.7166,5.57433 -55.3624,11.45316 -82.9063,17.6875 1.9739,-12.67625 4.0734,-25.33103 6.2813,-37.96875 -25.1147,-28.82907 -50.1582,-57.66433 -75.0313,-86.625 -30.4713,11.52845 -60.8795,23.22311 -91.375,34.6875 -16.9792,-17.81282 -34.1539,-35.25927 -50.7187,-53.40625 l -0.9238,0.38302 -0.3575,0.14823 z m -514.8437,692.78125 c 15.9447,40.8927 28.6611,82.93912 38.5937,125.71875 -4.6145,-3.01792 -5.921,-8.07821 -5.8437,-13.25 -4.6828,-39.94685 -22.6258,-76.52343 -33.8126,-114.75 -0.6123,-2.44153 0.9654,2.25414 1.0626,2.28125 z"
         style="fill:#00222b;stroke:none" />
      <path
         style="fill:#ffffff;stroke:none"
         d="m 1716.5625,-971.9375 c -33.8473,14.54334 -62.8355,38.18114 -94.8437,56.03125 -1.2241,3.04261 0.7625,8.07319 -0.5938,10 -7.5107,-2.35814 -13.3695,3.91817 -17.875,8.90625 -15.9492,14.67799 -31.3578,29.95944 -47.3438,44.53125 -19.9997,-13.26443 -41.0483,-29.19494 -66.0937,-29.15625 -12.4716,1.69377 -21.8499,11.19697 -30.3125,19.71875 -12.3831,-7.10785 -25.5483,-12.96462 -37.6828,-20.61711 -17.4271,-9.68045 -34.9371,-21.14797 -54.911,-24.19539 -16.5615,1.94708 -25.354,18.27121 -34.4808,30.26388 -18.9175,24.56631 -40.7127,47.38909 -56.7066,73.82987 0.7653,2.53624 -0.3015,3.54447 -2.375,4.65625 -4.2999,4.16264 -7.1567,9.63733 -8.9063,15.3125 -4.6363,-6.55247 -8.0907,-14.58997 -14.1875,-19.6875 -45.4175,-8.65658 -90.7313,-17.84591 -136.125,-26.625 -3.339,16.3651 -3.1585,33.73077 -6.5938,49.71875 -15.6473,5.95951 -22.6247,22.5545 -34.1107,33.45882 -13.4668,15.74799 -26.7321,31.71152 -39.7955,47.82243 6.4431,12.70789 13.0573,25.31445 19.5938,37.96875 -11.9065,28.61451 -23.8114,57.22963 -35.7188,85.84375 46.8544,56.41704 94.4191,112.24076 141.125,168.78125 -4.6819,3.19344 -9.3176,6.45071 -13.9688,9.6875 3.4721,6.04104 7.4661,12.51395 10.5,18.375 -27.0286,-6.58456 -56.8501,9.06949 -67.9374,34.34375 -12.1154,25.24649 -11.6482,55.45539 -3.8323,81.97731 0.3695,3.25929 5.2171,8.60308 -0.1365,9.52269 -22.2472,11.52543 -39.1654,30.61145 -55.375,49.21875 -12.4845,17.48159 -15.4547,39.72887 -14.6884,60.67812 -5.0116,15.77763 -13.1647,32.73855 -7.1866,49.50938 5.1157,18.699461 20.23,32.015984 34.4688,44.0625 4.8505,11.898532 10.7479,25.382968 23.596,30.292511 9.7024,4.528989 17.4153,11.9669582 24.1514,20.0303537 14.9565,14.8450193 36.6229,21.5277813 57.5026,19.2396353 21.8944,-1.770219 43.0282,-11.221818 59.25,-25.96875 20.3719,-1.0086583 36.8778,-16.055262 46.241,-33.183652 2.9028,-5.260214 5.416,-10.746229 7.3527,-16.441348 4.6782,35.03452 7.966,70.63706 10.5625,105.75 -33.3569,-13.318827 -70.7367,-20.991512 -106.2574,-11.84557 -53.7461,11.714623 -101.7851,53.235068 -114.9171,107.46476 -6.9588,26.60638 -8.3873,56.04637 1.862,81.91206 12.3575,20.23701 37.2651,26.63341 59.1746,30.62882 50.9339,7.77521 101.4858,-6.62336 151.1603,-16.13918 60.9829,-13.23385 123.5611,-26.05086 186.1964,-18.14589 17.6584,0.29303 32.1493,-17.11328 30.4687,-34.46875 -0.5726,-8.8548 -1.823,-17.87903 0.6875,-26.53125 2.3946,-22.02073 -6.4154,-43.52838 -18.5938,-61.28125 -0.7203,-8.40131 -0.6101,-17.588939 0.4063,-25.78125 4.816,-2.01593 10.9738,-1.164995 16.1422,-2.361917 87.9398,-10.672596 176.8922,-12.748194 265.2641,-6.763083 -16.0018,5.392402 -32.66,11.883194 -44.5,24.375 -8.365,11.10615 -6.1747,25.85806 -6.9688,38.75 -4.9325,22.474 -26.6466,35.38825 -37.3125,54.6875 -24.9203,39.99185 -34.0583,92.22886 -15.9063,136.71875 6.773,16.75862 18.746,32.03557 35.7414,39.2534 18.1616,8.16237 37.6878,13.31702 57.0198,17.88341 77.7459,16.15992 164.1275,-0.77942 224.9264,-52.94931 13.6942,-11.28918 26.5951,-25.38232 29.5937,-43.53125 4.3746,-22.70277 0.9448,-46.25157 -4.4687,-68.40625 -10.5549,-37.25715 -37.2442,-68.20399 -70.4376,-87.5625 -5.9886,-3.88241 -12.8999,-8.46512 -16.125,-14.46875 12.8205,0.91018 25.7791,-2.09262 36.9688,-8.25 34.737,2.92842 68.1488,-15.393052 89.6562,-41.71875 24.3152,-4.695596 41.2081,-26.637925 47.4673,-49.552644 12.0424,-28.753736 20.3706,-62.264184 8.5953,-92.478606 -8.7614,-26.30307 -21.6579,-51.36741 -35.2188,-75.3125 5.9482,-20.19196 -5.2721,-42.71702 -22.6562,-53.4375 -10.9068,-7.13155 -24.4298,-8.33402 -37.0938,-6.34375 -23.3164,1.78085 -46.0677,8.83064 -67.0312,19.125 19.8714,-46.95928 44.8916,-91.52222 71.1562,-135.25 -3.6329,-6.63368 -7.4748,-13.13779 -11.0625,-19.78125 33.0314,-27.85403 66.0618,-55.70915 99.0937,-83.5625 3.71,-27.41532 8.2404,-54.70969 12.375,-82.0625 -15.2639,-10.04293 -33.1981,-14.76519 -48.5,-24.75 12.4517,-19.69479 29.1122,-37.84844 35.4376,-60.84375 0.073,-18.26029 -15.842,-31.53496 -17.375,-49.375 -1.5871,-4.96672 -5.4085,-11.9216 0.2666,-15.76083 13.9862,-18.12985 28.8877,-35.4323 45.6396,-51.08292 -14.1318,-42.15741 -17.0088,-89.53876 -43.7188,-126.46875 -12.2709,-11.03128 -30.3507,-7.31337 -44.6874,-3.09375 -27.7166,5.57433 -55.3624,11.45316 -82.9063,17.6875 1.9739,-12.67625 4.0734,-25.33103 6.2813,-37.96875 -25.1147,-28.82907 -50.1582,-57.66433 -75.0313,-86.625 -30.4713,11.52845 -60.8795,23.22311 -91.375,34.6875 -16.9792,-17.81282 -34.1539,-35.25927 -50.7187,-53.40625 l -0.9238,0.38302 -0.3575,0.14823 z m -514.8437,692.78125 c 15.9447,40.8927 28.6611,82.93912 38.5937,125.71875 -4.6145,-3.01792 -5.921,-8.07821 -5.8437,-13.25 -4.6828,-39.94685 -22.6258,-76.52343 -33.8126,-114.75 -0.6123,-2.44153 0.9654,2.25414 1.0626,2.28125 z"
         id="path4266"
         inkscape:connector-curvature="0" />
      <path
         style="fill:#000000;stroke:none"
         d="m 1711.5,-948.9375 c -23.9085,14.16762 -47.076,29.64735 -70.7812,44.1875 -0.1106,15.37513 -0.2647,30.75007 -0.4063,46.125 -7.6616,-8.38047 -15.3452,-16.74118 -22.9687,-25.15625 -20.1203,18.40548 -39.3809,37.71268 -59.75,55.8125 -13.4503,-10.19892 -28.0975,-19.0001 -42.5938,-27.40625 -7.4863,-3.49649 -15.6538,-8.12322 -24.125,-7.03125 -10.0548,3.25098 -14.4718,13.61365 -22.4963,19.62132 -5.7882,5.75791 -11.5459,11.57857 -17.1599,17.50368 0.024,-6.40628 0.074,-12.81247 0.094,-19.21875 -27.0454,-14.11612 -53.3502,-30.34022 -81,-43.15625 -8.8412,-0.048 -11.3374,10.09805 -16.9043,15.18056 -18.9324,24.34133 -38.2425,48.38763 -57.6894,72.31944 1.2822,3.47878 2.5484,7.10507 2.5312,10.8125 -6.4778,2.04245 -15.8095,5.21747 -15.3438,13.5625 -2.265,14.84924 -5.1069,29.66401 -7.5937,44.5 -11.7902,-17.75172 -23.5347,-35.45717 -35.125,-53.28125 -36.6057,-7.01997 -73.1363,-14.42352 -109.7187,-21.5625 -1.8885,16.29857 -3.3794,32.63907 -4.9688,48.96875 -4.1003,-3.71587 -11.6082,-7.0255 -15.623,-1.33751 -18.0084,20.81213 -36.0911,41.51994 -53.377,62.93126 5.9515,11.55166 12.0432,23.03108 18.0938,34.53125 -11.6145,27.85421 -23.2298,55.70808 -34.8438,83.5625 49.035,58.65334 98.2482,117.15754 147.2812,175.8125 -5.6803,3.8299 -11.2747,7.7127 -16.8437,11.6875 66.4116,115.77164 99.6674,247.75633 112.875,379.84375 2.1322,20.346303 3.8133,40.735498 5.4687,61.125 26.3139,4.418689 49.8451,19.214627 76,23.75 133.0896,-30.002402 271.0022,-33.852641 406.7634,-23.871813 27.2092,2.329138 54.1685,7.158747 81.2935,10.07778 8.0143,-0.869409 16.0162,-1.86828 24.0681,-2.330967 -18.2046,-16.752508 -23.3532,-42.419874 -24,-66.09375 -2.9086,-72.132208 19.6704,-142.27114 47.957,-207.60756 17.8782,-39.72624 39.0795,-77.74756 61.2306,-115.23619 -4.5596,-7.98232 -8.8845,-16.0997 -12.8126,-24.40625 35.021,-29.5415 70.0409,-59.08434 105.0626,-88.625 3.0531,-20.54187 6.3023,-41.05459 9.375,-61.59375 -18.362,-8.97756 -36.8455,-17.70414 -55.25,-26.59375 13.6132,-23.06366 29.4964,-44.80943 43.625,-67.46875 2.4829,-9.80756 -7.2761,-16.58362 -9.4927,-25.46121 -5.606,-13.33109 -8.7563,-27.44327 -12.3823,-41.44504 14.8708,-20.04412 30.4165,-39.45305 48.1874,-57.03125 -10.3987,-35.57694 -15.1861,-73.82996 -34.1874,-106 -6.9857,-6.66813 -16.6609,-0.60656 -24.613,0.0701 -31.6214,6.69742 -63.2598,13.31816 -94.8246,20.27368 -10.4039,27.09059 -21.6045,53.8774 -32.4687,80.8125 0.6292,-14.27752 9.024,-26.27371 15.5625,-38.625 -2.8727,-7.44653 -8.2439,-15.41242 -4.7162,-23.54981 3.8316,-23.82192 7.634,-47.64875 11.5912,-71.45019 -20.1189,-23.13436 -40.2549,-46.25419 -60.2812,-69.46875 -30.2561,11.46614 -60.5412,23.05179 -90.7813,34.4375 -8.6804,-10.43886 -19.1451,-19.39381 -28.2245,-29.64182 -7.45,-7.84382 -14.9256,-15.66331 -22.4005,-23.48318 l -0.9029,0.42993 -0.4096,0.19507 z m -484.3125,365.03125 c 6.3542,6.97917 12.7083,13.95833 19.0625,20.9375 -1.3333,7.6875 -2.6667,15.375 -4,23.0625 -6.0144,-15.15942 -11.5604,-30.59682 -16.9375,-46.03125 0.625,0.67708 1.25,1.35417 1.875,2.03125 z m 99.8437,109.34375 c 1.3368,0.8814 -0.9017,1.45404 0,0 z"
         id="path3154"
         inkscape:connector-curvature="0" />
      <path
         style="fill:#000000;stroke:none"
         d="m 1987.1875,-195.40625 c -50.0879,3.51024 -99.1399,29.00327 -128.1875,70.1875 -7.7215,14.80667 -3.6355,37.382196 12.875,44.15625 2.205,0.528558 4.856,0.46416 3.3125,3.53125 -2.9281,12.122371 -14.4103,20.102443 -16.414,32.613578 -4.9399,18.127104 -5.5719,37.2334687 -9.3105,55.537709 -1.5519,13.275689 3.0965,29.95817 15.9432,35.223713 -6.7001,14.573689 -3.8619,35.551292 11.625,43.21875 14.9066,8.569674 34.3236,5.44576 47.9063,-4.125 31.3518,5.438547 63.0892,-11.869094 80.6213,-37.213641 1.7483,-5.224183 7.5858,-1.965785 11.5037,-3.817609 15.7736,-3.88119 25.3687,-19.036766 29.9525,-33.745732 8.0805,-20.910241 16.8339,-43.352014 13.9538,-66.191768 -3.8502,-23.554965 -16.0663,-44.61161 -25.5048,-66.24166 -4.8428,-9.83233 -9.5141,-20.65522 -18.5265,-27.35209 12.5301,-16.39889 -0.1662,-43.43837 -20.4687,-45.15625 -3.0503,-0.52047 -6.1745,-0.75663 -9.2813,-0.625 z"
         id="path3206"
         inkscape:connector-curvature="0" />
      <path
         inkscape:connector-curvature="0"
         id="path3204"
         d="m 1934.2159,-125.46956 c 0,0 -35.3315,17.2128 -48.0145,34.4255 1.8118,9.0594 2.2648,20.8365 -5.8886,30.8018 -8.1534,9.9653 -11.3242,17.6657 -13.1361,35.3315 -1.8118,17.6657004 -14.042,54.809 4.0767,60.2446 18.1187,5.4356 29.4429,-4.0767 38.0493,-37.1432996 3.6237,-10.4182004 10.4182,-21.2895004 19.4776,-25.3662004 -10.4183,14.495 -16.3068,36.6904004 -23.1013,50.2794 -6.7946,13.589 -15.8539,21.2895 -26.2722,21.2895 -5.8885,11.7771 -12.683,31.7077 12.6831,37.5963 15.4009,1.3589 29.8959,-4.5297 66.1333,-43.0319 -4.9827,8.1534 -29.8959,34.4255 -29.8959,34.4255 0,0 36.2374,5.8886 61.6036,-25.8192 25.3662,-31.7077 30.3488,-36.6903 30.3488,-36.6903 l -12.6831,21.7424 c 0,0 17.2128,4.9827 28.5369,-26.7249996 11.3242,-31.7078004 15.8539,-47.5616004 12.6831,-63.4155004 -3.1707,-15.8538 -28.5369,-72.0218 -34.8785,-78.8163 -6.3415,-6.7945 -14.9479,-14.9479 -57.9798,3.1708 17.2128,-10.4183 33.5196,-15.4009 40.7671,-18.1187 7.2475,-2.7178 14.9479,-3.6238 12.6831,-16.7598 -2.2649,-13.1361 -12.6831,-22.1954 -57.9798,-8.6064 -45.2968,13.589 -86.0638,52.0913 -84.252,66.1332 1.8119,14.042 5.4356,23.1014 17.2128,15.4009 11.7771,-7.7004 19.4776,-22.6483 49.8264,-30.3488 z"
         style="fill:#ffffff;stroke:none" />
      <path
         style="fill:#000000;stroke:none"
         d="m 1139.9062,-359.3125 c -22.3866,0.60037 -38.873,22.02533 -40.7812,43.0625 -5.325,26.09276 -0.04,54.72418 16.3125,75.875 2.138,3.25269 -3.1872,0.55045 -4.7813,1.25 -17.9221,-0.13735 -31.8982,12.62207 -44.1145,24.14189 -15.1884,13.36613 -31.3746,29.25669 -33.0729,50.67061 -1.5576,8.12898 0.834,16.50776 -0.3416,24.50005 -3.7186,14.06312 -13.7989,28.59723 -7.9084,43.5937 4.2968,15.920574 18.8155,25.524103 31.0937,35.0625 4.711,8.630265 5.2029,20.743528 15.125,25.5 7.8551,4.752008 16.8683,7.959202 22.25,15.9375 10.4333,11.6624164 24.0305,22.8960161 40.6239,22.0468236 22.2579,0.738967 45.6675,-7.2622206 60.5011,-24.0780736 1.2306,-1.987389 2.9916,-4.186513 5.4375,-2.375 13.1889,2.650161 24.1491,-8.244001 31.0938,-18.0625 16.9918,-24.692441 18.0531,-59.14142 4.6562,-85.75 -4.365,-7.99014 -10.8002,-14.87547 -18.8438,-19.25 -3.0264,-39.19734 -15.2964,-77.06531 -31.2333,-112.75749 -6.3419,-17.92264 -5.6632,-37.27863 -5.4541,-56.05501 -1.5989,-17.1336 -9.6764,-36.8337 -27.6563,-41.96875 -4.1772,-1.17035 -8.5731,-1.49546 -12.9063,-1.34375 z"
         id="path3189"
         inkscape:connector-curvature="0" />
      <path
         sodipodi:nodetypes="ssccccccscsccccccscssssccscsscscsccccsscsccsscccscc"
         inkscape:connector-curvature="0"
         id="path3182"
         d="m 1141.8165,-347.36031 c -16.6465,-0.0557 -28.7881,13.35413 -31.5625,37.53125 -3.1708,27.63101 2.2683,42.5666 9.9688,54.34375 13.5889,-9.51231 19.0502,-9.93656 28.5624,-7.21875 -8.1534,0.45296 -18.1276,1.33207 -25.375,12.65625 2.2648,3.17077 3.625,6.8125 3.625,6.8125 0,0 10.8633,-8.15404 22.1876,-1.8125 -13.589,2.26484 -20.8438,6.78125 -20.8438,6.78125 0,0 -5.4176,8.61079 5.4536,12.6875 10.8712,4.0767 44.6006,27.6209 41.4298,59.7816 9.8897,5.2791 9.9649,11.2689 11.0439,23.9885 1.7285,20.3748 3.2281,30.8392 -1.7398,32.6362 7.2475,10.8713 15.4025,25.8352 4.5313,46.2187 5.4355,9.5123 7.2496,16.7674 6.3437,21.75 11.3241,-15.4008 18.543,-49.3949 7.2187,-61.625 l -11.3124,-12.2187 c 0,0 9.9699,3.1578 13.5937,7.6874 4.0767,-26.7251 -2.257,-84.7026 -22.1875,-128.18745 -19.9306,-43.48487 -13.5938,-68.84375 -13.5938,-68.84375 0,0 0.446,-37.59533 -19.9374,-42.125 -2.548,-0.56621 -5.0282,-0.83579 -7.4063,-0.84375 z m -32.2187,120.25 c -13.4976,0.10365 -24.0727,11.13795 -43.2813,28.71875 -26.7251,24.4602 -20.8279,40.7688 -20.375,50.2812 0.453,9.5124 -4.5313,22.6563 -4.5313,22.6563 -16.7597,28.084 6.8169,43.4561 19.5,52.0625 12.683,8.6063 7.0121,22.6744 19.4688,29.4688 11.0977,7.2475 10.865,2.6938 26.7188,20.8124 15.8538,18.1187004 38.0403,16.7772004 64.3124,5 26.2722,-11.7771 15.8741,-36.2367 13.1563,-43.0312 -8.1534,4.5297 -19.9558,7.6875 -27.6563,7.6875 -7.7003,0 -11.7691,2.7383 -22.1874,14.0625 8.1535,-26.7251 32.1612,-15.4252 46.6562,-24.9375 14.4949,-9.5123 7.2469,-28.083 -1.8125,-42.125 -9.0593,4.0768 -20.8176,2.7336 -35.3125,0.4687 -14.495,-2.2647 -24.6975,6.1041 -30.8125,13.125 3.1707,-7.7004 12.222,-15.4072 21.2813,-18.125 9.0594,-2.7177 27.1918,5.889 39.875,0.9063 12.683,-4.9826 7.25,-16.3027 7.25,-33.0625 -10e-5,-16.7598 -9.5313,-19.0312 -9.5313,-19.0312 0,0 -28.083,-9.9539 -44.1634,-11.7658 -17.14,-1.9314 -27.8565,11.3317 -40.0866,21.297 26.7251,-36.6904 42.5763,-27.1986 82.4375,-14.0625 3.6237,-27.631 -18.571,-42.5669 -43.0312,-55.25 -6.8795,-3.56712 -12.5934,-5.19681 -17.875,-5.15625 z m 103.0315,92.14075 c 0,0 1.3738,23.9877 -1.3441,33.953 4.5298,17.6657 1.8078,47.1146 -11.7812,62.0625 4.0767,7.2475 11.3163,2.7144 22.1875,-9.9687 10.8712,-12.6831 17.2295,-52.0859 3.1875,-74.2813 -6.4547,-8.6065 -10.098,-10.5198 -12.2497,-11.7655 z"
         style="fill:#ffffff;stroke:none" />
      <path
         inkscape:connector-curvature="0"
         id="path3148"
         d="m 1188.556,-385.76071 c 0,0 381.7932,-272.89243 721.3072,-25.62371 -93.5265,215.23906 -114.0254,270.33006 -135.8056,421.50986 -125.5561,-19.2176996 -324.1398,-35.8731 -472.7573,24.3426 -10.2495,-126.8374 -33.3108,-275.45484 -112.7443,-420.22875 z"
         style="fill:#ff0000;stroke:none" />
      <path
         transform="matrix(1.0032797,-0.13293396,0.12931496,0.97596632,-3476.3057,-560.55486)"
         d="m 4806.4363,940.34259 c 0,16.13577 -8.4162,29.21639 -18.7981,29.21639 -10.3819,0 -18.7982,-13.08062 -18.7982,-29.21639 0,-16.13577 8.4163,-29.21639 18.7982,-29.21639 10.3819,0 18.7981,13.08062 18.7981,29.21639 z"
         sodipodi:ry="29.216394"
         sodipodi:rx="18.798145"
         sodipodi:cy="940.34259"
         sodipodi:cx="4787.6382"
         id="path3118"
         style="fill:#000000;fill-opacity:1;stroke:none"
         sodipodi:type="arc" />
      <path
         sodipodi:nodetypes="cssc"
         inkscape:connector-curvature="0"
         id="path3120"
         d="m 1396.9966,-228.29313 c 0,0 -14.042,-21.74238 -22.6483,-17.21275 -3.3319,1.75364 -0.8775,5.07045 2.2466,6.46505 4.9454,2.20766 13.7392,2.97482 20.4017,10.7477 z"
         style="fill:#000000;stroke:none" />
      <path
         style="fill:#000000;stroke:none"
         d="m 1379.5729,-229.15137 c 0,0 -21.3645,-14.61041 -27.546,-7.10207 -2.3931,2.90683 1.154,5.01476 4.5744,5.0911 5.4144,0.12087 13.8194,-2.57634 22.9716,2.01097 z"
         id="path3122"
         inkscape:connector-curvature="0"
         sodipodi:nodetypes="cssc" />
      <path
         style="fill:#000000;stroke:none"
         d="m 1681.7896,-272.74601 c 0,0 8.8448,-24.32447 18.2439,-21.82622 3.6389,0.96719 1.9852,4.74748 -0.7496,6.80309 -4.3292,3.25402 -12.7311,5.9612 -17.4943,15.02313 z"
         id="path3124"
         inkscape:connector-curvature="0"
         sodipodi:nodetypes="cssc" />
      <path
         sodipodi:nodetypes="cssc"
         inkscape:connector-curvature="0"
         id="path3126"
         d="m 1698.5841,-277.46476 c 0,0 17.5722,-19.00326 25.2712,-13.06092 2.9806,2.30057 -0.01,5.14582 -3.3251,5.98232 -5.2513,1.32419 -14.046,0.56745 -21.9461,7.0786 z"
         style="fill:#000000;stroke:none" />
      <path
         sodipodi:type="arc"
         style="fill:#ffffff;fill-opacity:1;stroke:none"
         id="path3128"
         sodipodi:cx="4787.6382"
         sodipodi:cy="940.34259"
         sodipodi:rx="18.798145"
         sodipodi:ry="29.216394"
         d="m 4806.4363,940.34259 c 0,16.13577 -8.4162,29.21639 -18.7981,29.21639 -10.3819,0 -18.7982,-13.08062 -18.7982,-29.21639 0,-16.13577 8.4163,-29.21639 18.7982,-29.21639 10.3819,0 18.7981,13.08062 18.7981,29.21639 z"
         transform="matrix(0.32669958,0.06238005,-0.0606818,0.31780548,-65.670292,-890.79296)" />
      <path
         sodipodi:type="arc"
         style="fill:#000000;fill-opacity:1;stroke:none"
         id="path3130"
         sodipodi:cx="4787.6382"
         sodipodi:cy="940.34259"
         sodipodi:rx="18.798145"
         sodipodi:ry="29.216394"
         d="m 4806.4363,940.34259 c 0,16.13577 -8.4162,29.21639 -18.7981,29.21639 -10.3819,0 -18.7982,-13.08062 -18.7982,-29.21639 0,-16.13577 8.4163,-29.21639 18.7982,-29.21639 10.3819,0 18.7981,13.08062 18.7981,29.21639 z"
         transform="matrix(1.0032797,-0.14780834,0.12931496,1.0851701,-3285.4091,-615.09206)" />
      <path
         transform="matrix(0.32669958,0.06935994,-0.0606818,0.35336568,125.22631,-982.28146)"
         d="m 4806.4363,940.34259 c 0,16.13577 -8.4162,29.21639 -18.7981,29.21639 -10.3819,0 -18.7982,-13.08062 -18.7982,-29.21639 0,-16.13577 8.4163,-29.21639 18.7982,-29.21639 10.3819,0 18.7981,13.08062 18.7981,29.21639 z"
         sodipodi:ry="29.216394"
         sodipodi:rx="18.798145"
         sodipodi:cy="940.34259"
         sodipodi:cx="4787.6382"
         id="path3132"
         style="fill:#ffffff;fill-opacity:1;stroke:none"
         sodipodi:type="arc" />
      <path
         sodipodi:nodetypes="ccsc"
         inkscape:connector-curvature="0"
         id="path3134"
         d="m 1409.2268,-396.79698 c 0,0 -68.8511,-3.62374 -72.4748,52.54421 -31.7077,-30.80178 -26.2295,-62.43248 -2.7178,-78.81631 22.9574,-15.99755 53.4501,-10.87122 75.1926,26.2721 z"
         style="fill:#000000;stroke:#000000;stroke-width:0.62991881px;stroke-linecap:butt;stroke-linejoin:miter;stroke-opacity:1" />
      <path
         style="fill:#000000;stroke:#000000;stroke-width:0.62991881px;stroke-linecap:butt;stroke-linejoin:miter;stroke-opacity:1"
         d="m 1608.1957,-418.53941 c 0,0 68.8511,-3.62374 72.4748,52.54421 31.7077,-30.80178 26.2295,-62.43248 2.7178,-78.81631 -22.9574,-15.99755 -53.4501,-10.87122 -75.1926,26.2721 z"
         id="path3136"
         inkscape:connector-curvature="0"
         sodipodi:nodetypes="ccsc" />
      <path
         style="fill:#000000;stroke:none"
         d="m 1696.2188,-223.21875 c -12.2319,17.05259 -30.7152,28.96001 -48.78,39.45516 -35.1763,19.89848 -75.6002,27.3131 -114.845,35.20109 -22.4569,3.64437 -44.9112,8.27325 -67.5297,10.17476 -8.0466,0.23208 -16.1337,-0.14681 -23.8141,-2.67476 0.6369,6.89979 6.9055,10.86507 13.25,11.4375 7.6493,1.29489 15.5053,0.83084 23.1875,0 5.7296,24.5108 11.5302,49.004632 17.1875,73.53125 -12.4107,1.837173 -25.2378,1.838134 -37.625,-0.3125 9.6582,9.853122 24.3469,9.593234 37.125,10.09375 54.1858,-4.408005 109.5374,-22.568864 149.8438,-60.1875 25.063,-23.86013 41.58,-55.59428 50.9374,-88.65625 2.7174,-10.18498 4.2964,-20.64419 4.6563,-31.1875 -1.1979,1.04167 -2.3958,2.08333 -3.5937,3.125 z"
         id="path3140"
         inkscape:connector-curvature="0" />
      <path
         style="fill:#ffffff;stroke:none"
         d="m 1678.1562,-192.1875 c -37.5078,30.64377 -86.1271,41.85066 -132.6633,51.3241 -19.2178,3.78515 -38.5612,6.90119 -57.9304,9.8009 5.743,24.53195 11.2922,49.307802 17.1563,73.6875 46.9234,-5.66129 94.4583,-21.992419 130.1562,-54.0625 23.592,-21.09096 39.7174,-50.6039 44.8125,-81.9375 l -0.7902,0.61282 -0.7411,0.57468 z"
         id="path3138"
         inkscape:connector-curvature="0" />
      <path
         sodipodi:nodetypes="ccccc"
         inkscape:connector-curvature="0"
         id="path3150"
         d="m 1306.4251,38.95214 c 0,0 40.4235,13.9771 56.3721,21.1396 170.5823,-41.2315 408.0574,-30.1079 483.6474,-12.8119 -53.8098,-26.2642 -73.0276,-32.0296 -73.0276,-32.0296 0,0 -279.9389,-51.888 -466.9919,23.7019 z"
         style="fill:#550000;stroke:none" />
      <path
         sodipodi:nodetypes="ccccc"
         inkscape:connector-curvature="0"
         id="path3152"
         d="m 1783.0259,11.40664 c 0,0 -4.4786,-148.6996 133.1655,-409.73939 15.6007,48.28979 28.2638,66.38181 28.2638,66.38181 0,0 -139.6491,220.36388 -98.6512,371.54368 -34.592,-12.8118 -62.7781,-28.1861 -62.7781,-28.1861 z"
         style="fill:#800000;stroke:none" />
      <path
         inkscape:connector-curvature="0"
         id="path3167"
         d="m 1113.5978,-216.32906 c -2.2421,0.3203 -3.1796,2.2424 0.3437,8.9687 3.5232,6.7262 2.5625,14.75 2.5625,14.75 6.0856,-6.7262 -0.6641,-24.039 -2.9062,-23.7187 z m 12.5624,1.5625 c -1.5242,0.1548 -2.5726,2.6017 -1.0312,6.125 2.242,5.1247 0.3438,13.125 0.3438,13.125 2.5623,-1.9217 5.1171,-14.7345 2.875,-17.9375 -0.7007,-1.0009 -1.4947,-1.3829 -2.1876,-1.3125 z m 6.2188,55.75 c -0.5336,0.0794 -0.9747,0.382 -1.3125,0.7812 -1.0528,1.2443 -1.1775,3.6379 2.7187,6.625 9.6089,7.3669 3.5313,26.25 3.5313,26.25 7.0465,-12.4915 5.4451,-23.7112 0,-30.4374 -2.1033,-2.5982 -3.7636,-3.3936 -4.9375,-3.2188 z m 13.5625,6.1562 c -0.9306,-0.0343 -1.6259,1.11 -0.625,3.8126 1.6015,4.324 0.1563,14.5624 0.1563,14.5624 4.0036,-5.445 3.2147,-15.0431 2.0937,-17.125 -0.4204,-0.7807 -1.0667,-1.2293 -1.625,-1.25 z m 4.2813,59.8438 c -1.4055,-0.0331 -2.0112,2.4703 -0.75,4.8125 2.2421,4.1638 4.6602,6.2545 4.5,18.9063 0,0 3.9919,-7.8521 0.4687,-17.7813 -1.5414,-4.344 -3.1256,-5.9118 -4.2187,-5.9375 z m 7.375,2.3125 c -1.2049,-0.1605 -1.969,1.235 -0.4376,3.9375 2.7225,4.8045 1.9376,12.6562 1.9376,12.6562 0,0 2.7225,-8.4767 1.2812,-13.2812 -0.6306,-2.1019 -1.8441,-3.1877 -2.7812,-3.3125 z m 4.4062,48.4375 c -0.061,-0.0059 -0.1224,0.0112 -0.1875,0.0312 -2.0819,0.6407 -1.2968,2.8597 -0.6563,7.3438 0.6406,4.4842 -1.2812,9.4688 -1.2812,9.4688 4.0338,-4.3441 4.0232,-16.6611 2.125,-16.8438 z"
         style="fill:#000000;stroke:none" />
      <path
         inkscape:connector-curvature="0"
         id="path3197"
         d="m 1999.879,-45.61036 c 0,0 0.6253,7.6805 4.4688,22.0938 3.8436,14.4134004 5.14,21.7819004 -5.75,34.5938 8.0074,-2.8825996 14.7263,-15.3520996 13.125,-25.2813 -1.6015,-9.9292 -8.3205,-17.9538 -11.8438,-31.4063 z m 36.5,6.4063 c 0,0 3.8516,6.7348 3.5312,15.0625 -0.3203,8.3277 -7.0624,16.9844004 -5.7812,18.9062004 1.2812,1.9219 8.6406,-2.024 9.2812,-15.1562004 0.6406,-6.4059 -1.9259,-14.4094 -7.0312,-18.8125 z m -68.7812,29.125 c -1.6366,0.1201004 -5.131,1.3129004 -6.8126,9.0000004 -2.2421,10.2495 -8.3282,8.969 -8.9687,14.0936996 -0.6406,5.1249 7.0548,-1.6016 9.9375,-2.5624 2.8826,-0.9609996 5.125,-7.3830996 5.125,-9.62499958 -10e-5,-10.15150002 1.2247,-10.85260042 1.5312,-10.87500042 -0.08,-0.016 -0.3433,-0.0657 -0.8124,-0.0313 z"
         style="fill:#000000;stroke:none" />
      <path
         style="fill:#000000;stroke:none"
         d="m 1194.4375,55.46875 c -50.5851,1.014643 -101.6021,30.85476 -121.3191,78.24454 -9.4901,21.31854 -13.5017,45.23182 -9.8996,68.41171 -0.3198,10.00631 2.2415,22.06743 12.4374,26.34375 28.168,17.01159 62.8322,15.46814 94.4857,12.44871 54.1065,-6.67783 106.6158,-22.76602 160.6081,-30.44871 38.4806,-6.3018 77.9654,-8.98282 116.7812,-3.90625 9.4964,-1.53129 11.0871,-12.96873 9.4376,-20.71875 0.5697,-5.74033 -3.6574,-11.352 -0.031,-16.65625 5.2367,-17.55786 -2.5454,-35.953 -11.0625,-51.09375 -2.1113,-3.58314 -6.1429,-6.15162 -7.6562,-9.5625 2.6364,-9.941986 -0.1822,-20.383604 1.6562,-30.46875 -29.5629,12.189538 -61.8484,16.342375 -93.7188,16.8125 -22.7538,-1.789951 -44.3735,-10.645911 -65.8502,-17.655576 -23.9905,-8.709542 -47.4382,-20.828664 -73.4622,-21.500674 -4.1311,-0.236706 -8.2688,-0.350506 -12.4063,-0.25 z"
         id="path3222"
         inkscape:connector-curvature="0" />
      <path
         sodipodi:nodetypes="csssscsc"
         inkscape:connector-curvature="0"
         id="path3216"
         d="m 1073.5779,183.45414 c 0,0 0.3286,-65.9037 57.9799,-97.8409 30.0405,-16.6417 58.25,-22.0462 93.488,-15.4373 22.3899,4.1993 44.0275,18.493 86.793,29.9323 110.071,29.4429 112.7888,0.9059 127.2838,30.8017 14.4949,29.8959 3.6237,40.3141 3.6237,40.3141 0,0 -92.8583,-2.7178 -173.9394,14.948 -81.0812,17.6657 -153.556,24.0072 -195.229,-2.7179 z"
         style="fill:#ff0000;stroke:none" />
      <path
         sodipodi:nodetypes="ccsccsc"
         inkscape:connector-curvature="0"
         id="path3218"
         d="m 1074.4839,191.60764 1.8119,22.6483 c 0,0 27.178,30.3488 128.1897,9.0594 101.0117,-21.2895 178.0162,-38.9552 240.5257,-28.537 0,-16.3068 -1.3589,-16.7598 -1.3589,-16.7598 0,0 -97.5891,-3.9764 -162.6153,12.6832 -54.8091,14.0419 -149.4792,33.9725 -206.5531,0.9059 z"
         style="fill:#ffffff;stroke:none" />
      <path
         inkscape:connector-curvature="0"
         id="path3220"
         d="m 1364.8359,103.27894 c 0,0 35.7845,2.2649 62.9625,-9.0593 0,13.136 -3.6237,16.7598 -3.6237,16.7598 0,0 -49.3735,-3.1708 -59.3388,-7.7005 z"
         style="fill:#ff0000;stroke:none" />
      <path
         style="fill:#000000;stroke:none"
         d="m 1798.5312,77.46875 c -28.8038,1.559033 -57.822,8.506026 -82.9687,22.75 -6.5063,4.93158 -7.9411,13.70311 -6.1563,21.34375 0.6338,22.41939 -12.2618,42.87192 -28.5312,57.3125 -25.5011,30.16477 -38.0017,70.89314 -34.9062,110.3125 2.9518,15.07077 8.7221,29.83725 16.7812,42.8125 8.1344,11.74058 23.1824,14.37815 35.571,19.5741 71.6064,24.97894 155.4557,19.83173 219.679,-22.1366 15.6841,-10.23536 31.0525,-21.80457 42.5467,-36.62547 8.1368,-18.30939 5.2615,-39.25078 2.9845,-58.56203 -5.5232,-34.44498 -26.8973,-65.28118 -56.082,-83.89845 -7.2817,-5.50444 -16.2263,-9.05417 -22.6367,-15.6328 -9.8358,-10.9836 -18.4318,-24.92412 -17.4375,-40.3125 -6.3438,-8.454555 -17.9088,-9.155484 -27.1901,-12.424953 -13.6022,-3.4112 -27.6249,-4.764564 -41.6537,-4.512547 z"
         id="path3243"
         inkscape:connector-curvature="0" />
      <path
         inkscape:connector-curvature="0"
         id="path3237"
         d="m 1721.529,119.66684 c 0,0 0.6406,30.1078 -16.6554,50.6068 -17.296,20.4989 -46.1226,41.6385 -46.1226,118.5096 28.8266,14.093 80.7146,46.1227 165.9134,26.9049 85.1988,-19.2178 127.4779,-75.5899 127.4779,-75.5899 0,0 -2.5623,-51.888 -57.0127,-80.0741 -23.7019,-17.9366 -89.0424,-39.0761 -166.5541,11.5307 14.7337,-14.0931 34.592,-27.5455 66.6217,-34.592 -12.1713,1.2812 -28.1861,1.9218 -36.5138,7.0465 18.5772,-10.8901 32.6702,-21.7802 113.3849,-7.6871 -13.4525,-17.296 -15.3742,-32.0296 -15.3742,-32.0296 0,0 -38.4356,33.3108 -135.1651,15.3742 z"
         style="fill:#ff0000;stroke:none" />
      <path
         sodipodi:nodetypes="cccccc"
         inkscape:connector-curvature="0"
         id="path3239"
         d="m 1660.6727,295.18914 c 0,0 3.8435,19.8584 14.7336,33.9514 32.6702,17.9366 171.6789,64.0593 275.4549,-42.279 5.7653,-28.1861 1.9217,-40.3574 1.9217,-40.3574 0,0 -37.7949,67.2622 -153.1016,80.0741 -65.981,4.4841 -100.573,-7.6871 -139.0086,-31.3891 z"
         style="fill:#ffffff;stroke:none" />
      <path
         inkscape:connector-curvature="0"
         id="path3241"
         d="m 1772.1358,92.76194 c 0,0 -49.9662,10.8901 -49.3256,19.2178 0.6406,8.3277 82.6365,17.296 128.7591,-13.4525 -27.5455,-10.8901 -59.5751,-10.8901 -79.4335,-5.7653 z"
         style="fill:#550000;stroke:none" />
      <path
         sodipodi:nodetypes="ccccc"
         inkscape:connector-curvature="0"
         id="path3260"
         d="m 1116.5968,-739.91697 -43.4678,45.96291 147.2188,278.84375 c 10.4617,-6.05117 21.0338,-11.92615 31.75,-17.5625 z"
         style="fill:#ffff00;stroke:none" />
      <path
         inkscape:connector-curvature="0"
         id="path3262"
         d="m 1126.5665,-739.23531 128.125,305.21875 c 6.6106,-3.44938 13.2683,-6.81134 19.9687,-10.09375 -17.2469,-24.85236 -56.2665,-95.23672 -103.6874,-271.5625 -28.9899,-16.30683 -44.4063,-23.5625 -44.4063,-23.5625 z"
         style="fill:#aa8800;fill-opacity:1;stroke:none" />
      <path
         inkscape:connector-curvature="0"
         id="path3285"
         d="m 1086.0978,-652.20406 -30.1563,72.34375 146.8437,175.21875 c 0.9843,-0.61979 1.9508,-1.26034 2.9376,-1.875 2.5498,-1.53823 5.1211,-3.04804 7.6874,-4.5625 -42.4715,-80.35864 -84.9325,-160.71772 -127.3124,-241.125 z"
         style="fill:#ffff00;stroke:none" />
      <path
         inkscape:connector-curvature="0"
         id="path3304"
         d="m 1330.4102,-788.17281 -33.5312,14.5 -46.4375,268.25 c 6.7453,14.67108 14.1169,29.05066 22.3437,42.96875 l 57.625,-325.71875 z"
         style="fill:#ffff00;stroke:none" />
      <path
         inkscape:connector-curvature="0"
         id="path3306"
         d="m 1335.8478,-784.54781 -57.7813,330.75 c 1.293,2.06463 2.6026,4.11355 3.9375,6.15625 9.1554,-4.38413 18.3804,-8.6367 27.6875,-12.6875 l 58.7813,-278 -32.625,-46.21875 z"
         style="fill:#aa8800;fill-opacity:1;stroke:none" />
      <path
         inkscape:connector-curvature="0"
         id="path3330"
         d="m 1142.4415,-785.48531 -4.1563,42.96875 c 14.4945,8.52946 31.9011,18.4431 39.5626,21.46875 7.9255,29.5408 16.2145,58.8779 25.4062,88.0625 0.3703,1.11369 0.755,2.22928 1.125,3.34375 l 49.9688,54.84375 c 3.1289,-18.12503 6.238,-36.25133 9.375,-54.375 l -121.2813,-156.3125 z m 191.9063,247.3125 c -2.9321,13.85521 -5.8507,27.707 -8.7813,41.5625 l 19.8125,21.75 c 9.8644,-3.75641 19.7803,-7.35884 29.7812,-10.71875 l -40.8124,-52.59375 z"
         style="fill:#aa8800;fill-opacity:1;stroke:none" />
      <path
         inkscape:connector-curvature="0"
         id="path3332"
         d="m 1153.754,-787.26656 111.9062,146.96875 c 3.6812,-21.25992 7.3765,-42.52218 11.0626,-63.78125 l -45.0626,-67.78125 -77.9062,-15.40625 z m 193.3125,189.0625 c -3.5769,16.91014 -7.1714,33.80897 -10.75,50.71875 l 45.4687,59.71875 c 10.6676,-3.47818 21.4153,-6.71603 32.2188,-9.71875 l -66.9375,-100.71875 z"
         style="fill:#ffff00;stroke:none" />
      <path
         inkscape:connector-curvature="0"
         id="path3370"
         d="m 1488.9415,-844.32906 c 0,0 -29.8857,29.88699 -60.6875,64.3125 -6.3384,57.04513 -10.5936,237.42414 -11.5625,281.78125 10.0158,-2.74356 20.0691,-5.27856 30.1875,-7.59375 4.7262,-80.88636 42.0625,-338.5 42.0625,-338.5 z"
         style="fill:#ffff00;stroke:none" />
      <path
         inkscape:connector-curvature="0"
         id="path3372"
         d="m 1497.0978,-842.51656 c 0,0 -38.4938,256.92993 -42.5313,335 14.4368,-3.13732 28.9549,-5.84699 43.5625,-8.0625 3.3573,-42.5161 15.7289,-192.59869 51.5312,-301.5625 -32.6135,-19.93056 -52.5624,-25.375 -52.5624,-25.375 z"
         style="fill:#aa8800;fill-opacity:1;stroke:none" />
      <path
         inkscape:connector-curvature="0"
         id="path3413"
         d="m 1367.5665,-867.89156 c -31.7077,40.76706 -56.1875,70.65625 -56.1875,70.65625 0,0 1.0354,6.46332 1.2812,8 7.4477,-3.24294 14.9121,-6.46116 22.4063,-9.53125 2.7916,-0.4229 2.3438,2.1002 4.5625,4.9375 10.6966,16.83843 23.125,33.29967 34.7188,49.96875 -3.949,-49.20292 -6.7813,-94.899 -6.7813,-124.03125 z m 7.75,135.65625 c -8.6223,41.03157 -17.2633,82.07521 -25.9375,123.09375 14.7033,22.1575 29.4345,44.29389 44.1562,66.4375 -4.5943,-43.14293 -12.3173,-118.17823 -18.2187,-189.53125 z"
         style="fill:#ffff00;fill-opacity:1;stroke:none" />
      <path
         inkscape:connector-curvature="0"
         id="path3415"
         d="m 1375.7228,-869.70406 c 0,0 2.5113,201.51835 27.0937,341 2.1548,3.24064 4.3138,6.47807 6.4687,9.71875 2.263,-88.19321 3.7316,-176.46721 11.2188,-264.40625 5.8382,-6.53175 11.2956,-12.52656 16.5938,-18.25 0.051,-7.58646 0.2187,-34.53125 0.2187,-34.53125 l -61.5937,-33.53125 z"
         style="fill:#aa8800;fill-opacity:1;stroke:none" />
      <path
         inkscape:connector-curvature="0"
         id="path3437"
         d="m 1524.6602,-673.95406 c -8.4933,52.04605 -13.8663,104.71479 -18.3437,157.1875 9.027,-1.25705 18.078,-2.30095 27.1563,-3.1875 l -8.8126,-154 z"
         style="fill:#aa8800;fill-opacity:1;stroke:none" />
      <path
         inkscape:connector-curvature="0"
         id="path3439"
         d="m 1541.129,-756.17281 c -5.1256,21.17588 -9.5177,42.52727 -13.3438,64 4.182,57.24868 11.3782,152.90437 12.7813,171.53125 8.8716,-0.76901 17.7771,-1.34849 26.6875,-1.75 l 5.0312,-203.25 -31.1562,-30.53125 z"
         style="fill:#aa8800;fill-opacity:1;stroke:none" />
      <path
         inkscape:connector-curvature="0"
         id="path3467"
         d="m 1613.0665,-860.64156 -49.8437,47.125 -0.7813,66.96875 c 5.9949,5.8743 11.9983,11.75493 17.9687,17.65625 -1.7114,68.7291 -3.4579,137.45656 -5.0937,206.1875 3.8544,-0.12468 7.7024,-0.22735 11.5625,-0.28125 6.7631,-0.11643 13.5215,-0.10156 20.2812,0.0312 l 5.9063,-337.6875 z"
         style="fill:#ffff00;fill-opacity:1;stroke:none" />
      <path
         inkscape:connector-curvature="0"
         id="path3469"
         d="m 1621.2228,-858.82906 -4.375,336.15625 c 13.0598,0.48611 26.0777,1.43088 39.0624,2.84375 l 5.1563,-295.5 -39.8437,-43.5 z"
         style="fill:#aa8800;fill-opacity:1;stroke:none" />
      <path
         inkscape:connector-curvature="0"
         id="path3504"
         d="m 1860.379,-827.11031 -46.1875,8.15625 c 0,0 -120.8331,215.7253 -149.6875,264.59375 -0.1996,11.82053 -0.4027,23.64808 -0.5938,35.46875 8.0386,0.99394 16.046,2.1839 24.0313,3.53125 l 172.4375,-311.75 z"
         style="fill:#ffff00;fill-opacity:1;stroke:none" />
      <path
         inkscape:connector-curvature="0"
         id="path3507"
         d="m 1868.5352,-824.39156 -171.875,310.5625 c 15.2606,2.82845 30.3783,6.31411 45.3438,10.4375 l 150.0938,-263.9375 -23.5626,-57.0625 z"
         style="fill:#aa8800;fill-opacity:1;stroke:none" />
      <path
         inkscape:connector-curvature="0"
         id="path3529"
         d="m 1706.379,-929.48531 -51.6562,32.625 -0.625,62.15625 14.9687,16.375 c -1.3103,82.59897 -2.8651,165.18383 -4.2813,247.78125 11.8985,-20.94632 23.7795,-41.91649 35.6563,-62.875 l 5.9375,-296.0625 z"
         style="fill:#ffff00;fill-opacity:1;stroke:none" />
      <path
         inkscape:connector-curvature="0"
         id="path3531"
         d="m 1713.629,-928.36031 -10.5938,290.375 c 21.3703,-37.71915 42.6774,-75.46803 63.9376,-113.25 l 4.625,-116.65625 -57.9688,-60.46875 z"
         style="fill:#aa8800;fill-opacity:1;stroke:none" />
      <path
         inkscape:connector-curvature="0"
         id="path3562"
         d="m 1848.379,-913.61031 -74.3125,28.1875 -0.625,7.84375 6.2813,6.5625 c -1.3708,34.82306 -2.7489,69.64588 -4.125,104.46875 11.1727,-19.87839 22.3386,-39.7534 33.4687,-59.65625 10.1119,-1.78744 20.2279,-3.53226 30.3437,-5.3125 l 8.9688,-82.09375 z m -32.375,296.375 c -22.0201,38.68882 -44.0501,77.3697 -66.0625,116.0625 7.0566,2.0607 14.0621,4.27465 21.0313,6.625 10.2276,3.50131 20.3666,7.3006 30.4062,11.375 l 14.625,-134.0625 z"
         style="fill:#ffff00;stroke:none" />
      <path
         inkscape:connector-curvature="0"
         id="path3564"
         d="m 1857.3478,-905.92281 -8.3126,72.71875 c 4.5612,-0.82162 9.1038,-1.66751 13.6563,-2.53125 2.1308,-0.45188 4.8215,-0.86476 9.2813,-1.46875 5.7676,14.17324 11.6376,28.4524 17.5312,42.71875 l 10.125,-62.75 -42.2812,-48.6875 z m 21.3437,178.375 c -17.4033,30.6761 -34.8079,61.34569 -52.25,92 l -17.75,155.40625 c 9.44,3.98706 18.8011,8.23261 28,12.75 l 42,-260.15625 z"
         style="fill:#aa8800;fill-opacity:1;stroke:none" />
      <path
         inkscape:connector-curvature="0"
         id="path3594"
         d="m 1945.5352,-735.61031 -71.2187,85.625 c -5.4574,34.37701 -11.1229,68.73982 -16.75,103.09375 l 148.6563,-168.78125 -60.6876,-19.9375 z"
         style="fill:#ffff00;stroke:none" />
      <path
         inkscape:connector-curvature="0"
         id="path3596"
         d="m 2008.9415,-704.82906 -153.4063,170.28125 c -3.8581,23.61893 -7.6763,47.23335 -11.375,70.875 3.4999,1.78904 6.9816,3.59946 10.4376,5.46875 l 153.4374,-185 0.9063,-61.625 z"
         style="fill:#aa8800;fill-opacity:1;stroke:none" />
      <path
         inkscape:connector-curvature="0"
         id="path3626"
         d="m 2028.6602,-816.54781 -93.8437,20 -47.4063,118.21875 c 17.9109,-22.10832 36.8877,-43.5153 54.7188,-65.53125 l 0.2188,-0.25 0.6562,-0.75 43.625,14.34375 42.0312,-86.03125 z"
         style="fill:#ffff00;stroke:none" />
      <path
         inkscape:connector-curvature="0"
         id="path3628"
         d="m 2036.504,-812.17281 -40.8438,84.625 21.4688,7.0625 -0.6875,49.4375 c 14.5508,-20.24459 29.9893,-39.31261 46.125,-56 -17.3787,-70.38371 -26.0625,-85.125 -26.0625,-85.125 z m -87.9062,253.125 c -22.7873,27.47626 -45.5636,54.96165 -68.3438,82.4375 -4.7928,5.27093 -9.0629,11.17952 -13.6875,16.65625 l -3.1875,6.65625 c 9.7643,5.53998 19.319,11.41558 28.6562,17.625 8.6566,-21.77252 28.4295,-69.42783 56.5626,-123.375 z"
         style="fill:#aa8800;fill-opacity:1;stroke:none" />
      <path
         inkscape:connector-curvature="0"
         id="path3657"
         d="m 2017.2852,-658.64156 c -0.3441,0.47904 -0.6876,0.95805 -1.0312,1.4375 l -0.2188,16.875 c -20.1769,24.31925 -31.137,39.26766 -51.3124,63.59375 l -7.5,16.0625 c -19.772,42.97671 -41.3839,85.32698 -58.4376,129.5625 7.0607,4.88063 13.99,9.96246 20.75,15.25 1.5951,5.64662 3.3151,11.27103 5.1563,16.84375 24.1147,-60.15914 75.3373,-151.91051 113.125,-203.34375 -9.0832,-13.62472 -16.3246,-38.86768 -20.5313,-56.28125 z"
         style="fill:#aa8800;fill-opacity:1;stroke:none" />
      <path
         inkscape:connector-curvature="0"
         id="path3675"
         d="m 1995.5665,-522.01656 c -25.1954,42.73706 -47.47,87.1634 -66.3437,133.0625 l 117.4062,-108.53125 -51.0625,-24.53125 z"
         style="fill:#ffff00;stroke:none" />
      <path
         inkscape:connector-curvature="0"
         id="path3677"
         d="m 2046.629,-487.04781 -115.25,106.71875 c 2.1439,5.5419 4.4179,11.02927 6.8125,16.46875 l 102.7813,-86.6875 5.6562,-36.5 z"
         style="fill:#aa8800;fill-opacity:1;stroke:none" />
    </g>
  </g>
  <g
     inkscape:groupmode="layer"
     id="layer2"
     inkscape:label="Halaman"
     style="display:inline">
    <g
       transform="matrix(0.80086088,0,0,0.80086088,-1954.0007,1272.3658)"
       id="g4275"
       style="font-size:360.09094238px;font-style:normal;font-variant:normal;font-weight:bold;font-stretch:normal;line-height:1000%;letter-spacing:0px;word-spacing:0px;fill:#0b2228;fill-opacity:1;stroke:none;font-family:Arial;-inkscape-font-specification:Arial Bold" />
  </g>
</svg>
