<?xml version="1.0" encoding="UTF-8" standalone="no"?>
<!-- Generator: Adobe Illustrator 18.1.1, SVG Export Plug-In . SVG Version: 6.00 Build 0)  -->

<svg
   xmlns:dc="http://purl.org/dc/elements/1.1/"
   xmlns:cc="http://creativecommons.org/ns#"
   xmlns:rdf="http://www.w3.org/1999/02/22-rdf-syntax-ns#"
   xmlns:svg="http://www.w3.org/2000/svg"
   xmlns="http://www.w3.org/2000/svg"
   xmlns:sodipodi="http://sodipodi.sourceforge.net/DTD/sodipodi-0.dtd"
   xmlns:inkscape="http://www.inkscape.org/namespaces/inkscape"
   version="1.1"
   id="Capa_1"
   x="0px"
   y="0px"
   viewBox="0 0 326.36788 448.06126"
   enable-background="new 0 0 841.9 595.3"
   xml:space="preserve"
   inkscape:version="0.91 r13725"
   sodipodi:docname="kawaiifries-colour.svg"
   width="326.36789"
   height="448.06125"><metadata
     id="metadata13678"><rdf:RDF><cc:Work
         rdf:about=""><dc:format>image/svg+xml</dc:format><dc:type
           rdf:resource="http://purl.org/dc/dcmitype/StillImage" /><dc:title></dc:title></cc:Work></rdf:RDF></metadata><defs
     id="defs13676" /><sodipodi:namedview
     pagecolor="#ffffff"
     bordercolor="#666666"
     borderopacity="1"
     objecttolerance="10"
     gridtolerance="10"
     guidetolerance="10"
     inkscape:pageopacity="0"
     inkscape:pageshadow="2"
     inkscape:window-width="1916"
     inkscape:window-height="1035"
     id="namedview13674"
     showgrid="false"
     fit-margin-top="0"
     fit-margin-left="0"
     fit-margin-right="0"
     fit-margin-bottom="0"
     inkscape:zoom="0.96658035"
     inkscape:cx="172.17503"
     inkscape:cy="224.19001"
     inkscape:window-x="4"
     inkscape:window-y="1"
     inkscape:window-maximized="1"
     inkscape:current-layer="Capa_1" /><g
     id="g14224"><path
       inkscape:connector-curvature="0"
       id="path14220"
       d="m 301.11111,144.72792 -105.55555,-4.44445 -173.333338,22.22222 -13.8888887,9.44445 -1.6666666,26.11111 19.4444443,38.33333 21.111111,48.88889 10.555556,136.66667 2.777778,12.77778 15,3.33333 71.111114,5.55555 105,-1.11111 22.22222,-18.33333 19.44444,-37.22222 8.33334,-100.55556 17.77777,-89.44444 3.33334,-20 -6.66667,-21.11111 z"
       style="fill:#d40000;fill-rule:evenodd;stroke:none;stroke-width:1px;stroke-linecap:butt;stroke-linejoin:miter;stroke-opacity:1" /><path
       inkscape:connector-curvature="0"
       id="path14222"
       d="m 10,104.72792 16.111111,45 9.444445,26.66666 12.777777,25 10.555556,-12.77778 22.222222,-13.33333 29.999999,-6.11111 50.55556,-2.77778 40.55555,0.55556 24.44445,5.55555 25.55555,15 19.44445,15.55556 9.44444,-3.88889 3.88889,-22.77778 4.44444,-25 20,-67.22222 -3.88888,-9.444445 -17.22223,-3.888888 0,-16.111112 5.55556,-20.555555 -15,-13.888889 -7.22222,4.444444 -7.77778,16.666667 -2.22222,-8.333333 -5.55556,-17.222222 -14.44444,-6.6666671 -12.22223,-6.6666667 -8.33333,2.7777778 -3.33333,16.666667 -9.44445,0.555555 -3.88889,-0.555555 -1.11111,-15.0000003 -10,0.5555555 L 187.77778,25.283471 176.11111,17.505693 161.66667,19.17236 165,10.839027 155,1.9501377 l -10.55556,5.5555555 -5,8.8888888 -17.77777,2.777778 -15,-7.222222 -6.11111,3.333333 L 100,33.061249 95,49.17236 l -6.666667,-5 -10,-11.111111 -10.555555,1.111111 -6.111111,7.222222 0,10 7.777777,20.555556 L 75,100.28347 l 2.777778,20.55556 -8.888889,-13.33334 -10,-21.111108 -5.555556,-28.333333 -6.666666,-9.444445 -10.555556,0.555556 -5.555555,12.777778 7.777777,22.222222 5.555556,17.22222 0.555555,5.55556 -6.666666,5.55555 -4.444445,-11.11111 -5,-11.666665 -12.222222,1.111112 -5.555555,8.333333 z"
       style="fill:#e1c451;fill-rule:evenodd;stroke:none;stroke-width:1px;stroke-linecap:butt;stroke-linejoin:miter;stroke-opacity:1;fill-opacity:1" /><g
       transform="translate(-248.77499,-73.778737)"
       id="g13654"><g
         id="g13656"><path
           inkscape:connector-curvature="0"
           id="path13658"
           d="m 392.8,418.4 c -2.8,-5.9 -5.1,-12.5 -3.6,-18.9 0.2,-1 0.6,-2.1 1.3,-2.9 2.3,-2.5 6.9,-0.7 8.6,2.3 1.7,3 1.6,6.7 2.3,10.1 0.6,2.6 1.6,5 3.2,7.2 0.9,1.3 2.1,2.6 3.7,3 3.4,0.8 6.2,-2.8 7.4,-6.2 1.3,-3.8 1.9,-7.8 1.8,-11.7 -0.1,-2.6 0.9,-5.4 3,-7 2.1,-1.6 5.5,-1.5 7.2,0.5 1.6,1.8 1.5,4.5 1.2,6.9 -0.5,3.9 -1.3,7.8 -2.3,11.6 -1.2,4.2 -2.9,8.5 -6,11.7 -3.3,3.4 -8.1,5.3 -12.8,5 -4.7,-0.3 -9.3,-2.7 -12.1,-6.4 -1.1,-1.6 -2.1,-3.4 -2.9,-5.2 z" /><path
           inkscape:connector-curvature="0"
           id="path13660"
           d="m 546.7,211.9 c 4.2,-14.6 8.4,-29.3 12.6,-43.9 1.5,-5.1 2.9,-10.4 1.6,-15.5 -1.3,-5.1 -6.3,-9.7 -11.5,-8.4 -5.7,1.4 -10.1,-5.9 -9.3,-11.7 0.8,-5.8 4.4,-11 5.4,-16.8 2.1,-12 -9.6,-24.3 -21.7,-22.8 -2.7,0.3 -5.5,1.4 -6.7,3.9 -1.7,3.5 -0.4,9.5 -4.3,9.9 3.6,-8 -1.1,-18.6 -9.5,-21.2 -7.2,-2.2 -13,-7.7 -20,-10.4 -7.1,-2.6 -17.2,-0.5 -18.6,6.9 -0.5,2.7 0.2,5.5 -0.4,8.1 -0.7,2.6 -4,4.9 -6,3.1 2.9,-7.5 -3.7,-16.9 -11.8,-16.7 -8.1,0.2 -14.2,10 -10.9,17.3 C 432,87.8 423.9,85 417.4,87.5 416.6,80.7 410.8,74.8 404,73.9 c -6.8,-0.9 -13.9,3.3 -16.5,9.6 -2.5,6.3 -11.6,6 -18,3.6 -6.4,-2.4 -14,-5.5 -19.5,-1.6 -8.7,6.3 -1.4,21.5 -7.8,30.2 -4.9,-6.9 -13,-12.3 -21.4,-11.4 -8.4,0.8 -15.9,9.7 -13.3,17.7 5.9,18.7 10.4,37.9 13.4,57.3 -6.1,-10.9 -10.6,-22.8 -13.1,-35.1 -1.1,-5.5 -1.9,-11.1 -4.5,-16.1 -2.6,-5 -7.5,-9.2 -13.1,-9.2 -7.1,0 -12.6,7 -13.5,14 -0.9,7 1.5,14 3.9,20.7 3.2,9 6.4,18 9.7,27 -5.5,-2.3 -5.1,-10.2 -8.2,-15.2 -5.1,-8.2 -19.1,-6 -24.2,2.2 -5.1,8.2 -3.2,19.1 1.1,27.8 3.3,6.7 7.9,12.9 9.8,20.2 1.8,7.3 -0.2,16.4 -7,19.5 -9,4.1 -13.4,14.7 -13,24.6 0.4,9.8 4.7,19 9.1,27.8 12.9,25.4 27.9,50.4 33.9,78.2 3.5,16.2 3.8,32.9 4.5,49.5 1.4,32.5 4.4,64.8 7.5,97.2 0.2,2 0.6,4.3 2.3,5.2 0.8,0.4 1.8,0.4 2.7,0.5 58.3,1.2 116.6,2.5 175,3.7 6.7,0.1 13.5,0.2 19.7,-2.2 6.3,-2.5 11.3,-7.5 16.1,-12.3 12,-12.1 24.7,-25.7 25.9,-42.7 4.8,-68.6 14.5,-136.8 28.8,-204 4.3,-20.2 -8.3,-42.2 -27.6,-48.7 z m -5.8,-63.3 c 4.5,-2 9.7,1.9 11.1,6.5 1.4,4.7 0,9.7 -1.4,14.3 -10,33.7 -21.5,67.3 -25.9,102.2 -4,-3.5 -3.8,-9.7 -3.3,-15 3.3,-32.7 7.9,-65.3 13.7,-97.6 0.8,-4 2,-8.7 5.8,-10.4 z m -2.2,95.5 c 0,-1.3 -0.1,-2.5 -0.1,-3.8 l -0.1,0 c 0.2,-1.7 0.8,-3.4 1.9,-4.7 2.1,2.5 1.2,6.8 -1.7,8.5 z M 523,104 c 0.4,-1.3 0.9,-2.9 2.2,-3.3 1.1,-0.4 2.3,0.1 3.3,0.6 4.7,2.3 10.2,6.3 8.9,11.4 -10.1,38.2 -15.5,77.5 -20.9,116.7 -1.5,10.7 -3,21.5 -2.9,32.3 -6.9,-6.1 -14.9,-11 -23.5,-14.2 -1.3,-0.5 -1.3,-2.4 -1,-3.8 9.8,-47 21.1,-93.6 33.9,-139.7 z m -30.7,9.6 c 1.1,-5.1 2.2,-10.3 3.3,-15.4 0.4,-2 0.9,-4 2.1,-5.6 1.2,-1.6 3.5,-2.6 5.3,-1.8 2.2,1 2.7,4 2.9,6.4 0.6,6.5 1.9,12.9 4,19.2 0.8,2.4 0.2,5.1 -0.5,7.5 -3.2,12.4 -6.4,24.7 -9.6,37.1 -1,-0.6 -1.2,-1.9 -1.3,-3 -1.1,-12.8 -3.3,-25.5 -6.5,-38 -0.6,-2.1 -0.1,-4.3 0.3,-6.4 z m -18,-31 c 2.1,-2.3 6,-2.7 8.4,-0.8 2.1,1.7 2.8,4.6 3.3,7.3 0.4,2.3 0.9,4.6 1.3,6.8 0.2,1.2 -0.1,2.9 -1.3,2.6 -0.8,-4.4 -6,-7.5 -10.3,-5.9 -0.9,0.3 -1.8,-0.5 -2.3,-1.3 -1.5,-2.7 -1.2,-6.4 0.9,-8.7 z m 4.1,18.6 c 1.6,1.9 2.2,4.5 2.8,7 l 3.8,17.2 c 2.9,13.2 5.9,26.4 7,39.9 2.2,26.6 -2.8,53.8 -14.5,77.9 3.1,-47.6 -0.6,-95.6 -10.9,-142.2 3.1,-3.2 8.9,-3.1 11.8,0.2 z m -9.8,134.6 c -0.1,0.8 -0.2,1.6 -0.7,2.2 -1.4,2 -4.9,0.7 -5.8,-1.6 -0.8,-2.3 0,-4.9 0.8,-7.2 2.7,-7.8 4.4,-16 5.1,-24.3 0.1,-1.7 1.1,-4 2.7,-3.4 0.2,11.5 -0.5,23 -2.1,34.3 z M 464.9,131 c 1.4,14.3 2.8,28.7 4.2,43 0.4,3.9 0.7,8.1 -1,11.6 -6.4,13 -10.9,26.8 -13.2,41.1 -0.4,2.5 -0.8,5.2 -2.4,7.2 -1.5,2 -4.6,3.2 -6.7,1.8 -2.4,-1.7 -2.1,-5.3 -1.5,-8.2 L 464.9,131 Z m -27.3,-15.1 c 0.4,-4 1.5,-8 2.5,-11.9 1.7,-6.2 3.4,-12.5 5.1,-18.7 0.3,-1.2 2.2,-1.3 3.1,-0.5 0.9,0.9 1.1,2.2 1.3,3.4 1.3,9.3 2.6,18.5 3.9,27.8 0.7,5.1 1.4,10.3 1.3,15.5 -0.1,5.6 -1.2,11.1 -2.3,16.5 -1.9,10 -3.9,20 -5.8,30 -0.3,1.5 -0.6,3 -1.7,4.1 -3.4,-18.1 -5.9,-36.4 -7.4,-54.7 -0.1,-3.8 -0.3,-7.7 0,-11.5 z M 412.9,95.5 c 2.8,-3.9 9.4,-2.6 12.3,1.2 2.9,3.8 3.2,8.9 3.4,13.7 0.8,18 2.2,36 5.1,53.8 3.5,21 9.1,42.8 2.9,63.2 -1.4,4.7 -5.7,10.1 -10.1,8 -3.2,-1.6 -3.5,-5.9 -3.4,-9.5 1.2,-40.6 -2.5,-81.3 -10.8,-121 -0.7,-3.2 -1.3,-6.7 0.6,-9.4 z m -17.3,-8.2 c 1.3,-4.4 6.5,-8.1 10.3,-5.7 2.8,1.8 3,6.4 0.4,8.4 -4.1,3.2 -3.3,9.5 -2.2,14.6 9.4,42.2 12.2,85.8 8.4,128.8 -3.2,-0.6 -3.3,-5 -3,-8.2 0.5,-5.8 -0.5,-11.6 -1.5,-17.4 -4.7,-26.7 -9.8,-53.4 -15.2,-80.1 -1.8,-8.9 2.7,-17.9 2.7,-26.9 -0.1,-4.5 -1.2,-9.2 0.1,-13.5 z m -22.9,30.2 c 0.1,-5 0.4,-10.1 2.6,-14.6 2.2,-4.5 7,-8 11.9,-7.3 -7.7,45.7 -2.9,93.4 13.6,136.7 0.4,1 -0.9,1.9 -2,2.3 -3.1,1.1 -6.3,2.2 -9.6,1.9 -3.3,-0.3 -6.6,-2.3 -7.4,-5.5 -8.4,-37.2 -10.2,-75.5 -9.1,-113.5 z M 353.3,95.6 c 0.7,-3 2.6,-6.6 5.7,-6.4 3.1,0.2 4.4,4 4.9,7.1 1.3,9.1 1.1,18.3 -0.3,27.4 -2.3,-2.1 -2,-5.7 -1.9,-8.9 0,-3.1 -1,-7 -4.1,-7.5 -2.3,-0.4 -4,-2.5 -4.6,-4.8 -0.7,-2.2 -0.3,-4.6 0.3,-6.9 z m -1.8,21.3 c 0.4,-0.5 0.9,-1.1 1.6,-1 0.6,0.1 0.8,0.7 1,1.3 7.5,20 11.6,41.3 12.1,62.7 0.4,18.8 3.4,37.5 8.8,55.6 0.4,1.4 -1.5,2.2 -3,2.3 l -12.2,1 c -0.9,0.1 -1.9,0.1 -2.7,-0.3 -1.1,-0.6 -1.4,-2 -1.6,-3.3 -5.5,-32 -8.3,-64.5 -8.3,-97 0,-7.4 0.3,-15.2 4.3,-21.3 z m -34.4,14.4 c -1.3,-4.4 -2.7,-9 -1.6,-13.5 1.1,-4.5 5.8,-8.4 10.1,-6.8 2.7,1 4.4,3.7 5.6,6.4 6.7,14.3 7.2,30.5 8,46.2 1.2,22.5 3.3,45 7.7,67 0.5,2.4 1,4.8 0.5,7.2 -0.5,2.4 -2.3,4.7 -4.7,4.9 -4.4,0.5 -6.5,-5.2 -7.1,-9.6 -4.8,-34.2 -8.8,-68.7 -18.5,-101.8 z m -31,8.1 c -1.2,-4.7 -1.5,-11.2 3.1,-12.7 2.7,-0.9 5.7,0.9 7.2,3.3 1.5,2.4 1.9,5.3 2.4,8.1 3,17.9 10,34.9 18.4,51 7.3,13.9 10.8,29.8 9.9,45.5 -7.4,-15.4 -13.3,-31.5 -17.6,-48 -1.4,-5.5 -4.6,-12.4 -10.2,-11.6 -2.5,0.4 -4.1,-2.6 -4.8,-5.1 -2.9,-10.1 -5.7,-20.3 -8.4,-30.5 z m 7.6,45.7 c 2.6,-1.4 6.6,-1 7.4,1.9 5.5,20.4 13.3,40.1 23.1,58.8 0.3,0.5 -0.3,1.1 -0.8,1.4 -4.1,2.5 -8.2,5.1 -12.3,7.6 -0.5,0.3 -1.2,0.7 -1.8,0.6 -1,-0.1 -1.5,-1.2 -1.9,-2.2 -6.6,-17.5 -12.6,-35.2 -18,-53.1 -0.6,-2 -1.2,-4 -1.1,-6.1 -0.1,-3.7 2.1,-7.2 5.4,-8.9 z m -27.8,4 c -1.9,-5 -3.9,-10.5 -2.1,-15.5 1.8,-5 9.3,-7.9 12.6,-3.6 4,5.3 5.6,12.3 4.2,18.8 -1.1,5 0.6,10.1 2.2,15 5.5,16.4 11,32.8 16.5,49.3 1.6,4.7 2.8,10.6 -0.8,13.9 -4.1,-4.5 -6.3,-10.3 -8.5,-15.9 -8,-20.8 -16,-41.4 -24.1,-62 z m 296.9,81.2 c -12.5,61.4 -24,123.2 -28,185.7 -1.1,16.8 -12.4,31.1 -23.8,43.5 -4.8,5.3 -10.6,10.8 -17.8,11 -56.7,1.6 -113.6,0.9 -170.2,-2.3 -4.4,-0.2 -10.1,-1.7 -10.4,-6.1 l -7.1,-103.5 c -0.6,-9.4 -1.3,-18.9 -3,-28.2 -5.7,-31.3 -22.7,-59 -36.6,-87.6 -3.2,-6.6 -6.3,-13.5 -7.2,-20.8 -0.8,-7.3 1,-15.3 6.3,-20.3 4.1,-3.9 12.3,-4.7 14.5,0.6 -6.2,0.4 -11.7,5.8 -12,12 -0.4,6.8 4.5,12.6 8.3,18.3 15.3,22.8 15.5,52.8 29.3,76.5 1.4,2.4 3.2,4.9 5.9,5.4 0.3,0.1 0.7,0.1 1,0.1 -4.6,-9.3 -6.8,-20 -6.8,-30.6 -3.3,-14 -3.4,-28.7 0,-42.6 1.6,-6.8 4.2,-13.7 9.2,-18.7 5,-5 12.8,-7.7 19.3,-5 2.1,0.9 2.9,-2.6 4,-4.5 1.2,-2.2 4,-2.9 6.5,-3.4 29.6,-5.7 59.9,-8 90.1,-6.8 14,0.5 28.1,1.8 41.3,6.3 13.2,4.5 25.7,12.4 33.5,24 1.9,2.8 3.5,5.8 4.8,8.9 4.7,8.1 8.3,16.9 10.2,26.3 0.8,4.1 1.4,8.2 1.8,12.3 0.8,3.9 1.4,7.8 2,11.7 0.8,-0.2 1.4,-0.7 1.7,-1.5 0.3,-0.7 0.3,-1.4 0.3,-2.2 0.4,-16 -1,-32.1 -4.1,-47.8 9.3,-0.2 14.4,-10.7 17.3,-19.6 1.9,-5.8 3.8,-11.6 5.8,-17.4 1,-3.1 2,-6.5 0.7,-9.5 -1.1,-2.5 -3.7,-4.1 -5.2,-6.3 -1.6,-2.2 -1.6,-6.2 1,-7 0.8,-0.2 1.7,-0.1 2.6,0.1 9.2,2.3 15.3,11.5 17,20.8 1.7,9.3 -0.3,18.9 -2.2,28.2 z" /></g><g
         id="g13662"><circle
           id="circle13664"
           r="21.200001"
           cy="386.39999"
           cx="476.39999" /><circle
           style="fill:#ffffff"
           id="circle13666"
           r="6.8000002"
           cy="381.39999"
           cx="483.10001" /></g><g
         id="g13668"><circle
           id="circle13670"
           r="21.200001"
           cy="388.10001"
           cx="337.89999" /><circle
           style="fill:#ffffff"
           id="circle13672"
           r="6.8000002"
           cy="383"
           cx="344.70001" /></g></g></g></svg>