<?xml version="1.0" encoding="UTF-8" standalone="no"?>
<svg
   xmlns:dc="http://purl.org/dc/elements/1.1/"
   xmlns:cc="http://creativecommons.org/ns#"
   xmlns:rdf="http://www.w3.org/1999/02/22-rdf-syntax-ns#"
   xmlns:svg="http://www.w3.org/2000/svg"
   xmlns="http://www.w3.org/2000/svg"
   height="938.09039"
   width="938.01996"
   version="1.1"
   viewBox="0 0 938.01992 938.09037"
   id="svg2">
  <defs
     id="defs4" />
  <g
     transform="translate(-324.15164,245.45512)"
     id="layer1">
    <g
       id="g3813">
      <g
         transform="matrix(4.6896315,0,0,4.688333,-1913.4592,-2318.9641)"
         id="g3790">
        <rect
           x="477.14001"
           y="442.35999"
           width="200"
           height="200"
           style="fill:#fcc052"
           id="rect3038" />
        <rect
           x="477.60999"
           y="442.26999"
           width="199.55"
           height="199.75"
           ry="0.78176999"
           style="fill:#f68b21"
           id="rect3215" />
        <path
           d="m 676.52,561.87 -59.02,-76.76 -4.1452,0.96448 c -1.3158,5.6424 1.996,9.8086 -3.6048,1.7855 l -3.97,-6.73 -5.8,-9.65 -12.98,17.13 -11.625,-12.375 -2.1441,8.6414 -14.132,-15.412 -3.0987,30.146 -7.5,25 2.75,43.75 -6.25,20 -1,13 -2.25,5.75 0,8.75 20.5,26.25 114.5,0.25 z"
           style="fill:#e95c24"
           id="path3615" />
        <path
           d="m 546.66,476.42 c 23.945,37.074 5.7011,6.4852 6.4216,30.432 -1.2096,-4.8092 1.5234,-3.2122 -0.23366,-5.6418 -3.1958,-5.2145 -12.242,-22.076 -6.1879,-24.79 z"
           style="fill:#e95c24"
           id="path3611" />
        <rect
           x="474.81"
           y="537.79999"
           width="10.36"
           height="59.487"
           ry="5.1847"
           transform="matrix(0.99247,-0.1225,0.12226,0.9925,0,0)"
           style="fill:#ffff00;stroke:#ffcc00;stroke-width:0.57277"
           id="rect3217" />
        <rect
           x="550.66998"
           y="468.47"
           width="10.359"
           height="59.487999"
           ry="4.6020999"
           style="fill:#ffff00;stroke:#ffcc00;stroke-width:0.57277"
           id="rect3219" />
        <rect
           x="582.34998"
           y="447.47"
           width="10.359"
           height="59.487999"
           ry="5.1847"
           transform="matrix(0.9988,0.049014,-0.048919,0.9988,0,0)"
           style="fill:#ffff00;stroke:#ffcc00;stroke-width:0.57277"
           id="rect3221" />
        <rect
           x="455.69"
           y="583.23999"
           width="10.36"
           height="59.486"
           ry="5.1845002"
           transform="matrix(0.97829,-0.20724,0.20685,0.97837,0,0)"
           style="fill:#ffff00;stroke:#ffcc00;stroke-width:0.57277"
           id="rect3223" />
        <rect
           x="579.04999"
           y="474.95001"
           width="10.359"
           height="59.487999"
           ry="4.6020999"
           rx="4.7708001"
           style="fill:#ffff00;stroke:#ffcc00;stroke-width:0.57277"
           id="rect3225" />
        <rect
           x="475.95999"
           y="583.31"
           width="10.36"
           height="59.486"
           ry="5.1845999"
           transform="matrix(0.98222,-0.18775,0.1874,0.98228,0,0)"
           style="fill:#ffff00;stroke:#ffcc00;stroke-width:0.57277"
           id="rect3227" />
        <rect
           x="595.03998"
           y="478.38"
           width="10.359"
           height="59.487999"
           ry="4.6020999"
           style="fill:#ffff00;stroke:#ffcc00;stroke-width:0.57277"
           id="rect3231" />
        <rect
           x="540.10999"
           y="545.72998"
           width="10.359"
           height="59.487999"
           ry="5.1847"
           transform="matrix(0.9941,-0.10846,0.10825,0.99412,0,0)"
           style="fill:#ffff00;stroke:#ffcc00;stroke-width:0.57277"
           id="rect3233" />
        <rect
           x="662.40997"
           y="362.32999"
           width="10.36"
           height="59.487"
           ry="5.1845999"
           transform="matrix(0.98561,0.16903,-0.16871,0.98567,0,0)"
           style="fill:#ffff00;stroke:#ffcc00;stroke-width:0.57277"
           id="rect3235" />
        <rect
           x="633.65002"
           y="448.03"
           width="10.359"
           height="59.487999"
           ry="4.875"
           transform="matrix(0.99847,0.055337,-0.055229,0.99847,0,0)"
           style="fill:#ffff00;stroke:#ffcc00;stroke-width:0.57277"
           id="rect3237" />
        <rect
           x="608.02002"
           y="423.13"
           width="10.359"
           height="59.487"
           ry="4.3291998"
           transform="matrix(0.99344,0.11437,-0.11415,0.99346,0,0)"
           style="fill:#ffff00;stroke:#ffcc00;stroke-width:0.57277"
           id="rect3239" />
        <path
           d="m 535.23,499.03 c 2.9774,0.56458 5.1489,2.9074 5.2165,5.1479 l 4.4981,42.643 c 0.29916,2.8362 -2.2937,5.1479 -5.1428,5.1479 l -0.0737,0 c -2.8491,0 -4.8437,-2.3117 -5.1428,-5.1479 l -4.4981,-42.643 c -0.29917,-2.8362 2.2937,-5.1479 5.1428,-5.1479 z"
           style="fill:#ffff00;stroke:#ffcc00;stroke-width:0.57277"
           id="path3241" />
        <rect
           x="408.64001"
           y="627.56"
           width="10.36"
           height="59.484001"
           ry="5.1844001"
           transform="matrix(0.96446,-0.26424,0.26376,0.96459,0,0)"
           style="fill:#ffff00;stroke:#ffcc00;stroke-width:0.57277"
           id="rect3243" />
        <rect
           x="486.72"
           y="570.26001"
           width="10.36"
           height="59.487"
           ry="5.1845999"
           transform="matrix(0.98841,-0.15181,0.15152,0.98845,0,0)"
           style="fill:#ffff00;stroke:#ffcc00;stroke-width:0.57277"
           id="rect3245" />
        <rect
           x="754.58002"
           y="175.39"
           width="10.361"
           height="59.477001"
           ry="5.1837001"
           transform="matrix(0.89401,0.44804,-0.44734,0.89436,0,0)"
           style="fill:#ffff00;stroke:#ffcc00;stroke-width:0.57277"
           id="rect3247" />
        <rect
           x="679.22998"
           y="581.32001"
           width="10.665"
           height="59.265999"
           ry="5.1654"
           transform="matrix(0.99201,-0.12618,-0.097304,0.99525,0,0)"
           style="fill:#ffff00;stroke:#ffcc00;stroke-width:0.58006001"
           id="rect3249" />
        <path
           d="m 529.86,517.22 11.45,98.237 c 31.638,-9.5376 55.201,-5.5919 78.263,0.75 l 10.609,-99.533 -8.4922,0.0462 c -26.725,13.442 -54.346,17.465 -83.969,0.4568 z"
           style="fill:#ff0000"
           id="path3257" />
      </g>
    </g>
  </g>
  <metadata
     id="metadata8719">
    <rdf:RDF>
      <cc:Work>
        <dc:format>image/svg+xml</dc:format>
        <dc:type
           rdf:resource="http://purl.org/dc/dcmitype/StillImage" />
        <cc:license
           rdf:resource="http://creativecommons.org/publicdomain/zero/1.0/" />
        <dc:publisher>
          <cc:Agent
             rdf:about="http://openclipart.org/">
            <dc:title>Openclipart</dc:title>
          </cc:Agent>
        </dc:publisher>
        <dc:title></dc:title>
      </cc:Work>
      <cc:License
         rdf:about="http://creativecommons.org/publicdomain/zero/1.0/">
        <cc:permits
           rdf:resource="http://creativecommons.org/ns#Reproduction" />
        <cc:permits
           rdf:resource="http://creativecommons.org/ns#Distribution" />
        <cc:permits
           rdf:resource="http://creativecommons.org/ns#DerivativeWorks" />
      </cc:License>
    </rdf:RDF>
  </metadata>
</svg>
