<?xml version="1.0" encoding="UTF-8" standalone="no"?>
<!-- Created with Inkscape (http://www.inkscape.org/) -->
<svg xmlns:inkscape="http://www.inkscape.org/namespaces/inkscape" xmlns:rdf="http://www.w3.org/1999/02/22-rdf-syntax-ns#" xmlns="http://www.w3.org/2000/svg" xmlns:cc="http://creativecommons.org/ns#" xmlns:dc="http://purl.org/dc/elements/1.1/" xmlns:sodipodi="http://sodipodi.sourceforge.net/DTD/sodipodi-0.dtd" xmlns:svg="http://www.w3.org/2000/svg" xmlns:ns1="http://sozi.baierouge.fr" id="svg6462" sodipodi:docname="_svgclean2.svg" inkscape:export-ydpi="72.000000" inkscape:export-filename="/home/Krug/Desktop/openClipImg/svg/png/fastfood2.png" viewBox="0 0 280.87 368.26" sodipodi:version="0.32" inkscape:export-xdpi="72.000000" version="1.1" inkscape:version="0.48.3.1 r9886" xmlns:xlink="http://www.w3.org/1999/xlink">
  <defs id="defs6464">
    <linearGradient id="linearGradient7778" y2="242.73" gradientUnits="userSpaceOnUse" y1="234.35" gradientTransform="matrix(1.0028 0 0 .99724 -46.329 -3.5772)" x2="158.92" x1="309.63" inkscape:collect="always">
      <stop id="stop7776" style="stop-color:#000000;stop-opacity:.37037" offset="0"/>
      <stop id="stop7777" style="stop-color:#000000;stop-opacity:0" offset="1"/>
    </linearGradient>
  </defs>
  <sodipodi:namedview id="base" bordercolor="#666666" inkscape:pageshadow="2" inkscape:window-y="0" pagecolor="#ffffff" inkscape:window-maximized="0" inkscape:window-width="674" inkscape:zoom="1" inkscape:window-x="0" showgrid="false" borderopacity="1.0" inkscape:current-layer="svg6462" inkscape:cx="177.6829" inkscape:cy="-532.16688" inkscape:window-height="645" inkscape:pageopacity="0.0"/>
  <path id="path9813" style="fill-rule:evenodd;fill:#ffdf00" inkscape:connector-curvature="0" d="m12.577 106.69-12.577-26.648l19.389 8.362 10.48 18.289-3.144-15.153 0.524-8.362-13.1-21.429-8.384-7.316 3.144-0.523 13.1 1.568 6.288 4.704 9.433 1.045 4.716-4.704-8.385-19.86 5.765-2.614 7.336 0.523-7.336-11.498 15.195-0.523 11.01 11.498h7.86l-6.29-6.271 5.24 1.045 5.24-3.658-4.72-11.499 12.05-4.181 10.48 25.61 3.67 2.09 11.53 27.178-3.67-30.836 4.72-4.181-5.77-12.021 13.63-7.84 2.1-6.794 14.67-0.5227 5.76 14.634-1.57 5.227 1.57 3.136 6.29-21.429 11-3.1356 5.77 1.0453-1.57 16.202 9.43 2.09-4.19 13.066 6.29 2.091 1.57-13.066 4.71-4.181 10.48 16.724 2.1-0.523v-15.156l14.15-11.498 6.81 5.226-2.1 28.223 8.39-17.247 7.86-4.182 10.48 6.795-5.77 8.362 6.29 2.091-0.52 5.749-9.43 13.588 6.28-1.045 7.34-6.794h8.39l3.14 6.794 9.96-4.181 11-0.523-1.05 7.317-11.53 22.474 16.77-1.045-14.15 22.476h-27.77l-12.58 14.63-18.34 21.95-22.53 11.5-22.53 7.84-23.06 4.18-28.82-1.57-20.96-5.75-26.2-14.63-17.293-13.59-13.101-13.59-4.192-5.75h-16.773z"/>
  <path id="path6515" style="fill-rule:evenodd;fill:#ff0000" inkscape:connector-curvature="0" d="m2.999 105.69c15.269 0.02 32.86-4.22 38.286 14.08 12.916 14.31 30.206 24.51 47.426 33.02 14.61 3.94 29.38 7.64 44.66 7.17 15.37 1.02 30.2-4.69 45.08-7.91 11.05-5.78 24.6-8.84 33.29-17.98 10.14-10.2 18.8-24.26 27.87-33.45 9.75 3.4 33.51-5.225 32.48 7.42-9.17 83.97-18.34 167.94-27.5 251.91-17.25 16.04-36.37-10.2-57.2-6.76-23.14-4.01-46.71-3.95-70.12-4.91-22.8 6.54-46.66 10.52-68.416 19.97-17.146 0.47-10.803-22.16-15.227-33.4-8.321-50.99-16.93-101.95-21.913-153.4-2.905-25.26-5.81-50.51-8.716-75.76z"/>
  <path id="path7774" style="fill-rule:evenodd;fill:url(#linearGradient7778)" inkscape:connector-curvature="0" d="m3.313 105.55c15.269 0.02 32.859-4.22 38.286 14.08 12.912 14.31 30.202 24.51 47.422 33.02 14.62 3.94 29.38 7.64 44.66 7.17 15.37 1.02 30.2-4.69 45.08-7.91 11.06-5.78 24.6-8.84 33.29-17.98 10.14-10.2 18.8-24.26 27.88-33.45 9.75 3.4 33.51-5.225 32.47 7.42-9.16 83.97-18.33 167.94-27.5 251.91-17.25 16.04-36.37-10.2-57.19-6.76-23.15-4.01-46.72-3.94-70.12-4.91-22.8 6.54-46.66 10.52-68.423 19.97-17.146 0.47-10.802-22.16-15.226-33.4-8.322-50.99-16.93-101.95-21.913-153.4-2.906-25.25-5.811-50.51-8.716-75.76z"/>
  <path id="path7797" style="fill-rule:evenodd;fill:#000000;fill-opacity:.1625" inkscape:connector-curvature="0" d="m13.374 106.43-13.339-26.607 19.268 8.869 11.857 16.258-17.786 1.48z"/>
  <path id="path7798" style="fill-rule:evenodd;fill:#000000;fill-opacity:.10625" inkscape:connector-curvature="0" d="m63.031 136.74-1.49-17 11.86-14.79 5.93-1.47 3.7 45.08-12.59-5.91-7.41-5.91z"/>
  <path id="path7799" style="fill-rule:evenodd;fill:#ffdf00" inkscape:connector-curvature="0" d="m114.9 156.69-2.96-14.04 11.85-5.91 5.93 1.47 0.74 19.22-8.89 0.74-6.67-1.48z"/>
  <path id="path7800" style="fill-rule:evenodd;fill:#ffdf00" inkscape:connector-curvature="0" d="m151.95 158.91v-27.35l15.57 0.74 5.92 1.48-2.96 19.96-11.12 4.43-7.41 0.74z"/>
  <path id="path7801" style="fill-rule:evenodd;fill:#ffdf00" inkscape:connector-curvature="0" d="m175.67 150.78 4.44-31.04 3.71-17.74 14.08-5.916 4.45-0.739-2.23 8.865-7.41 30.31-2.22 9.61-14.82 6.65z"/>
  <path id="path7802" style="fill-rule:evenodd;fill:#ffdf00" inkscape:connector-curvature="0" d="m199.38 141.17 4.45-19.96 7.41-6.65 8.15-0.74h2.22l0.75 5.92-8.9 10.34-6.67 7.39-7.41 3.7z"/>
  <path id="path7803" style="fill-rule:evenodd;fill:#ffdf00" inkscape:connector-curvature="0" d="m251.26 98.303 11.85-18.477 6.67-0.739h10.38l-11.86 19.956-11.11 1.48-5.93-2.22z"/>
  <path id="path7804" style="fill-rule:evenodd;fill:#000000;fill-opacity:.1125" inkscape:connector-curvature="0" d="m45.24 121.21 0.741-25.865 6.67-2.218 6.67 1.478 4.45 18.475-2.23 6.66 0.74 16.26-10.371-7.39-6.67-7.4z"/>
  <path id="path7805" style="fill-rule:evenodd;fill:#ffdf00" inkscape:connector-curvature="0" d="m79.331 101.26 0.74-8.133 14.08 0.739 4.45 5.174v53.96l-10.38-2.22-5.93-3.7-2.22-26.61-0.74-19.21z"/>
  <path id="path7806" style="fill-rule:evenodd;fill:#ffdf00" inkscape:connector-curvature="0" d="m100.08 153.74 2.96-31.79 5.93-11.08 6.67-4.44h11.12l2.96 8.87-5.19 3.7v15.52l-12.59 8.13 2.96 14.78-7.41-0.74-7.41-2.95z"/>
  <path id="path7807" style="fill-rule:evenodd;fill:#000000;fill-opacity:.18125" inkscape:connector-curvature="0" d="m124.53 134.52v-16.26l4.45-3.7 6.67 0.74 11.12 1.48-0.74 22.91 1.48 18.48h-8.9l-7.41-0.74-1.48-20.69-5.19-2.22z"/>
  <path id="path7808" style="fill-rule:evenodd;fill:#ffdf00" inkscape:connector-curvature="0" d="m134.91 114.56-0.74-36.954 5.93-8.87 14.08 1.478 5.93 2.957-2.23 22.174-2.96 35.475-3.71-0.74 0.74 28.09-5.18-0.74-0.74-18.48v-22.17l-11.12-2.22z"/>
  <path id="path7809" style="fill-rule:evenodd;fill:#ffdf00" inkscape:connector-curvature="0" d="m158.62 90.174 11.86-10.348 8.15 0.739 1.48 34.738-5.18 34.74-3.71 2.22 2.22-18.48-6.66-1.48-12.6-1.48 2.96-28.82 1.48-11.829z"/>
  <path id="path7810" style="fill-rule:evenodd;fill:#000000;fill-opacity:.14375" inkscape:connector-curvature="0" d="m179.37 78.348 4.45-17.739 17.04-5.174 5.19 2.217-3.7 14.044-5.19 5.913-2.22 18.478-10.38 5.916-2.96 11.82-2.97-19.954 0.74-15.521z"/>
  <path id="path7811" style="fill-rule:evenodd;fill:#ffdf00" inkscape:connector-curvature="0" d="m194.94 93.13 1.48-14.782 4.44-6.652 2.97-1.479 10.37 2.218-0.74 12.565v6.652l-8.89 5.911-2.22 1.48v-3.695l-7.41-2.218z"/>
  <path id="path7812" style="fill-rule:evenodd;fill:#000000;fill-opacity:.13125" inkscape:connector-curvature="0" d="m202.35 98.303 11.85-8.868 10.38 0.739-5.19 16.259-0.74 7.39h-7.41l-7.41 6.65-2.97 18.48-5.92 3.7-5.19 0.74 6.67-19.96 5.93-25.13z"/>
  <path id="path7813" style="fill-rule:evenodd;fill:#000000;fill-opacity:.14687" inkscape:connector-curvature="0" d="m223.84 89.435 3.7-11.826 11.86-6.653 9.63 1.479v14.782l-2.96 11.826-7.41 2.22-14.82 17-2.23-4.44-2.96-0.74 0.74-10.34 4.45-13.308z"/>
  <path id="path7814" style="fill-rule:evenodd;fill:#ffdf00" inkscape:connector-curvature="0" d="m243.85 70.956 8.89-14.043 17.79-6.652 5.92-0.739-0.74 8.13-10.37 19.957-2.97 2.217-11.11 18.477-5.19 0.74 2.96-11.087-0.74-16.26-4.44-0.74z"/>
  <path id="path7815" style="fill-rule:evenodd;fill:#ffdf00" inkscape:connector-curvature="0" d="m254.22 54.696-1.48-7.392-8.89 2.218-6.67 8.13v11.826l5.18 1.478 11.86-16.26z"/>
  <path id="path7816" style="fill-rule:evenodd;fill:#000400;fill-opacity:.13437" inkscape:connector-curvature="0" d="m237.18 55.435-11.86 1.478-8.15 10.348-3.71 4.435v18.478h9.64l4.44-13.305 11.12-5.173-1.48-2.957v-13.304z"/>
  <path id="path7817" style="fill-rule:evenodd;fill:#ffdf00" inkscape:connector-curvature="0" d="m229.03 55.435 11.85-14.044-0.74-4.434-5.19-1.479-11.11-1.478-18.53 21.435 0.74 2.956-2.96 11.826 10.37 2.218 11.86-17h3.71z"/>
  <path id="path7818" style="fill-rule:evenodd;fill:#000400;fill-opacity:.1625" inkscape:connector-curvature="0" d="m233.47 34 7.41-8.869-10.37-6.653-9.64 6.653-11.11 23.652 13.34-14.783h10.37z"/>
  <path id="path7819" style="fill-rule:evenodd;fill:#ffdf00" inkscape:connector-curvature="0" d="m211.24 39.174-4.45-3.696-15.56 0.739-2.96 22.174 12.59-3.695 3.71 2.217 5.93-8.13 0.74-9.609z"/>
  <path id="path7820" style="fill-rule:evenodd;fill:#ffdf00" inkscape:connector-curvature="0" d="m211.24 38.435 3.7-25.87-6.66-3.695h-5.19l-8.9 10.347v15.522l9.64-0.739h3.7l3.71 4.435z"/>
  <path id="path7821" style="fill-rule:evenodd;fill:#ffdf00" inkscape:connector-curvature="0" d="m42.276 120.47-7.411-11.82-3.705-4.44-5.188-13.3 1.483-7.391 15.562 0.739 5.929 7.391-2.224 2.956-4.446 25.865z"/>
  <path id="path7822" style="fill-rule:evenodd;fill:#000000;fill-opacity:.19687" inkscape:connector-curvature="0" d="m27.455 82.782-13.34-20.695-8.893-7.391 2.965-1.479 14.08 1.479 7.411 6.652h-4.447l8.893 21.434h-6.669z"/>
  <path id="path7823" style="fill-rule:evenodd;fill:#ffdf00" inkscape:connector-curvature="0" d="m25.972 60.609h12.599l8.893 17h-3.706l7.411 14.782-2.964 0.739 0.741-1.478-5.929-7.391-9.634-2.218-7.411-21.434z"/>
  <path id="path7824" style="fill-rule:evenodd;fill:#ffdf00" inkscape:connector-curvature="0" d="m51.169 93.13-8.152-16.261 17.044 0.74 8.15 4.434 9.64 21.44h-2.97l-11.85 13.3 0.74-5.17-4.45-17.005-8.152-1.478z"/>
  <path id="path7825" style="fill-rule:evenodd;fill:#000000;fill-opacity:.11562" inkscape:connector-curvature="0" d="m39.312 61.348 3.705-5.174 14.084-1.478 14.82 27.347 0.74 8.87-5.19-8.131-6.67-5.913-14.079-0.739-7.41-14.782z"/>
  <path id="path7826" style="fill-rule:evenodd;fill:#ffdf00" inkscape:connector-curvature="0" d="m42.276 55.435-8.893-18.478 4.447-2.957 14.08 3.696 14.821 31.782-9.63-15.522-14.825 1.479z"/>
  <path id="path7827" style="fill-rule:evenodd;fill:#ffdf00" inkscape:connector-curvature="0" d="m72.661 91.652v-8.13l-7.41-15.522 3.7-2.957 17.05 0.74 4.44 11.086-3.7 2.957 4.45 14.043-10.38-1.478-3.7 10.352-4.45-11.091z"/>
  <path id="path7828" style="fill-rule:evenodd;fill:#000000;fill-opacity:.14062" inkscape:connector-curvature="0" d="m87.481 79.087 12.6-13.304 8.15 7.391 0.74 17.739 1.48 16.26-5.92 14.78-2.23 11.09-2.22 19.96-0.74-31.79-0.74-22.91-4.45-4.434-3.71-0.739-2.96-14.043z"/>
  <path id="path7829" style="fill-rule:evenodd;fill:#ffdf00" inkscape:connector-curvature="0" d="m108.23 73.913 14.08-16.261 9.63 3.696 2.23 14.043v38.432h-4.45l-3.7-6.65-11.12-2.22-5.19 4.44 0.74-2.96-2.22-32.52z"/>
  <path id="path7830" style="fill-rule:evenodd;fill:#ffdf00" inkscape:connector-curvature="0" d="m157.88 70.956 2.23-9.608 14.08-6.652 8.15 3.695-4.45 22.174-6.67-0.739-11.11 10.348v-14.783l-2.23-4.435z"/>
  <path id="path7831" style="fill-rule:evenodd;fill:#ffdf00" inkscape:connector-curvature="0" d="m160.85 60.609 2.22-27.348 8.89 1.478 6.67 2.218-2.96 16.999-14.82 6.653z"/>
  <path id="path7832" style="fill-rule:evenodd;fill:#ffdf00" inkscape:connector-curvature="0" d="m176.41 34.739v-11.826l4.45-5.174 11.11 18.478-2.96 22.174-6.67 2.218v-2.218l-6.67-5.174 0.74-18.478z"/>
  <path id="path7833" style="fill-rule:evenodd;fill:#ffdf00" inkscape:connector-curvature="0" d="m157.14 69.478 2.22-8.869-0.74-10.348-5.93-7.391h-14.08l1.49 25.869 17.04 0.739z"/>
  <path id="path7834" style="fill-rule:evenodd;fill:#ffdf00" inkscape:connector-curvature="0" d="m127.5 58.391v-34.739h11.11l8.9 4.435-1.48 14.043h-7.42l2.23 25.131-5.19 8.869-3.71-17-4.44-0.739z"/>
  <path id="path7835" style="fill-rule:evenodd;fill:#000000;fill-opacity:.15" inkscape:connector-curvature="0" d="m147.51 26.609 1.48-7.392 24.45 0.74-3.7 13.304h-6.67l-2.96 26.608-1.49-10.347-5.93-7.392h-5.92l0.74-15.521z"/>
  <path id="path7836" style="fill-rule:evenodd;fill:#ffdf00" inkscape:connector-curvature="0" d="m142.32 24.391 5.19-19.956 11.85-4.4348 6.67 2.2174-2.22 16.999-14.08-0.739-2.22 8.87-5.19-2.957z"/>
  <path id="path7838" style="fill-rule:evenodd;fill:#000600;fill-opacity:.125" inkscape:connector-curvature="0" d="m112.68 66.522-5.93-34 11.11-5.913 6.67 4.435 2.97 14.782v11.826l-4.45-1.478-10.37 10.348z"/>
  <path id="path7839" style="fill-rule:evenodd;fill:#ffdf00" inkscape:connector-curvature="0" d="m112.68 68-13.34-30.304-9.64-0.739-5.18-1.479 7.41 34.739 1.48 4.435 7.41-8.869 7.41 7.391 4.45-5.174z"/>
  <path id="path7840" style="fill-rule:evenodd;fill:#ffdf00" inkscape:connector-curvature="0" d="m68.211 65.043-5.93-30.304h11.86l16.3 32.522 1.49 5.913-2.23 0.739-2.22-8.13-19.27-0.74z"/>
  <path id="path7841" style="fill-rule:evenodd;fill:#ffdf00" inkscape:connector-curvature="0" d="m46.722 35.478-8.151-13.304 14.08 1.478 14.08 9.609-4.45 0.739 6.67 29.565-3.7 3.696-12.6-29.565-5.929-2.218z"/>
  <path id="path7842" style="fill-rule:evenodd;fill:#000000;fill-opacity:.19062" inkscape:connector-curvature="0" d="m70.441 32.522-2.23-3.696h16.31l3.7 6.652h-3.7l8.89 36.218-18.53-36.957-4.44-2.217z"/>
  <path id="path7843" style="fill-rule:evenodd;fill:#ffdf00" inkscape:connector-curvature="0" d="m77.851 26.609-5.19-12.565 13.34-4.435 10.37 27.348-7.41-1.479-3.7-5.913-7.41-2.956z"/>
  <path id="path7844" style="fill-rule:evenodd;fill:#ffdf00" inkscape:connector-curvature="0" d="m126.02 25.87-3.71-22.913 14.08-0.0003 5.93 14.043-0.74 6.652-15.56 2.218z"/>
  <path id="path7845" style="fill-rule:evenodd;fill:#ffdf00" inkscape:connector-curvature="0" d="m109.71 28.826-4.44-11.826 17.78-4.435 2.97 11.087 0.74 2.957v15.521l-2.97-10.347-5.18-4.435-8.9 1.478z"/>
  <path id="path9758" style="fill-rule:evenodd;fill:#000000;fill-opacity:.43125" inkscape:connector-curvature="0" d="m21.485 92.063 3.144 10.98-9.432 3.65 15.72-1.04-9.432-13.59z"/>
  <path id="path9759" style="fill-rule:evenodd;fill:#000000;fill-opacity:.46875" inkscape:connector-curvature="0" d="m42.446 84.746 3.668 6.794-4.192 28.223 3.668 2.61 3.144-26.129 3.668-2.091-8.908-17.77 3.144 10.453-4.192-2.09z"/>
  <path id="path9760" style="fill-rule:evenodd;fill:#000000;fill-opacity:.46875" inkscape:connector-curvature="0" d="m68.121 111.4 7.34-3.66 2.09 1.04 2.1 33.98-5.24 1.04 7.86 5.23-2.62-53.312 1.57-2.09 6.81-0.523-8.38-1.568-1.05 4.704-1.05 4.699-4.19-7.312-4.71-8.885 5.24 13.067 0.52 3.66-3.67 5.22-2.62 4.71z"/>
  <path id="path9761" style="fill-rule:evenodd;fill:#000000;fill-opacity:.46875" inkscape:connector-curvature="0" d="m61.311 101.47 0.52 9.4-0.52 5.23-1.57 3.66 0.52 7.32v6.79l2.62 3.66-1.05-16.72 2.62-8.89-3.14-10.45z"/>
  <path id="path9762" style="fill-rule:evenodd;fill:#000000;fill-opacity:.48125" inkscape:connector-curvature="0" d="m36.682 61.227-8.385 0.522 3.668 18.816-7.86-19.861-1.572-5.226 5.24 4.704 8.909 1.045z"/>
  <path id="path9763" style="fill-rule:evenodd;fill:#000000;fill-opacity:.42812" inkscape:connector-curvature="0" d="m38.254 62.795 6.288 13.588h3.144l-3.144-2.09-6.288-11.498z"/>
  <path id="path9764" style="fill-rule:evenodd;fill:#000000;fill-opacity:.42812" inkscape:connector-curvature="0" d="m43.494 56.523 12.577-1.568 13.1 25.61-2.62-12.544 2.1-3.136h-2.62l-6.29-10.975-3.67-12.021 5.24-6.272-7.34 4.704-3.141-4.181-9.956-1.568 7.86 4.704 6.287 14.111-11.527 3.136z"/>
  <path id="path9765" style="fill-rule:evenodd;fill:#000000;fill-opacity:.42812" inkscape:connector-curvature="0" d="m66.031 76.383h-16.773l17.813 5.75 4.2 3.658-0.53-7.317 11.01-10.975-9.96 7.317-5.76 1.567z"/>
  <path id="path9767" style="fill-rule:evenodd;fill:#000000;fill-opacity:.50625" inkscape:connector-curvature="0" d="m91.701 95.199 3.67 3.134 3.67 54.88 0.52-55.92-7.86-2.094z"/>
  <path id="path9768" style="fill-rule:evenodd;fill:#000000;fill-opacity:.50625" inkscape:connector-curvature="0" d="m113.19 152.16-0.53-9.93 11.01-4.18 3.67 1.05 2.62 17.77v-21.95l-4.2-1.57-13.1 7.84 0.53 10.97z"/>
  <path id="path9770" style="fill-rule:evenodd;fill:#000000;fill-opacity:.50625" inkscape:connector-curvature="0" d="m112.66 140.14-3.67-29.27 8.91-7.31 7.86 4.18v5.23l-2.09-4.71-5.77-1.57-7.33 4.71 2.09 28.74z"/>
  <path id="path9771" style="fill-rule:evenodd;fill:#000000;fill-opacity:.50625" inkscape:connector-curvature="0" d="m126.81 130.74 2.62-17.77 14.67 6.27-13.62-8.37-4.19 1.05 0.52 18.82z"/>
  <path id="path9772" style="fill-rule:evenodd;fill:#000000;fill-opacity:.50625" inkscape:connector-curvature="0" d="m152.49 156.87-3.15-29.27s23.58 5.23 21.49 4.7c-2.1-0.52-17.29-1.04-17.29-1.04l-1.05 25.61z"/>
  <path id="path9773" style="fill-rule:evenodd;fill:#000000;fill-opacity:.50625" inkscape:connector-curvature="0" d="m147.25 155.3-3.67-60.627 11-5.226 9.96 2.613-13.1 0.522-3.67 4.708-0.52 58.01z"/>
  <path id="path9774" style="fill-rule:evenodd;fill:#000000;fill-opacity:.56875" inkscape:connector-curvature="0" d="m123.14 58.614 6.82 3.658 3.14 21.951 1.05 27.18 2.62-33.974 4.19-9.408-6.29 2.613-2.09-10.975-8.91-4.181-4.19 4.704 3.66-1.568z"/>
  <path id="path9775" style="fill-rule:evenodd;fill:#000000;fill-opacity:.50625" inkscape:connector-curvature="0" d="m117.38 26.732 5.24 1.046 3.67 25.609 0.52-27.177 3.67-1.568-4.19-1.568-2.1-12.021-0.52 11.498-6.29 4.181z"/>
  <path id="path9776" style="fill-rule:evenodd;fill:#000000;fill-opacity:.50625" inkscape:connector-curvature="0" d="m109.52 16.28 15.2-1.046-2.1-11.498-2.62 6.795-10.48 5.749z"/>
  <path id="path9777" style="fill-rule:evenodd;fill:#000000;fill-opacity:.50625" inkscape:connector-curvature="0" d="m135.72 22.551 8.91 6.272v12.543l-6.29 0.523 12.05 2.091 6.29 7.317v18.815l3.14-19.861-6.28-9.407-4.72-1.045-1.05-12.021-12.05-5.227z"/>
  <path id="path9778" style="fill-rule:evenodd;fill:#000000;fill-opacity:.50625" inkscape:connector-curvature="0" d="m138.34 42.934 1.57 24.565 0.53-22.997-2.1-1.568z"/>
  <path id="path9779" style="fill-rule:evenodd;fill:#000000;fill-opacity:.50625" inkscape:connector-curvature="0" d="m147.77 68.544 7.86 3.658 3.15 14.112 2.09-28.746-1.05 2.091-3.14 10.453-8.91-1.568z"/>
  <path id="path9780" style="fill-rule:evenodd;fill:#000000;fill-opacity:.50625" inkscape:connector-curvature="0" d="m166.11 58.614 8.39-1.568 4.71 1.045-1.57 32.404 5.77-29.791-7.34-8.362-9.96 6.272z"/>
  <path id="path9781" style="fill-rule:evenodd;fill:#000000;fill-opacity:.50625" inkscape:connector-curvature="0" d="m184.98 60.182 14.67-3.659 4.72 2.613-2.62 32.404 5.76-36.062-5.24-2.613-17.29 7.317z"/>
  <path id="path9782" style="fill-rule:evenodd;fill:#000000;fill-opacity:.50625" inkscape:connector-curvature="0" d="m161.4 126.55 2.09-27.7h12.06l-14.15-1.56v29.26z"/>
  <path id="path9783" style="fill-rule:evenodd;fill:#000000;fill-opacity:.50625" inkscape:connector-curvature="0" d="m175.02 100.94 2.62 9.41-2.09 40.77 6.28-43.38-1.04-8.36-5.77 1.56z"/>
  <path id="path9784" style="fill-rule:evenodd;fill:#000000;fill-opacity:.50625" inkscape:connector-curvature="0" d="m170.3 133.87-0.52 17.25 3.67-15.16-3.15-2.09z"/>
  <path id="path9785" style="fill-rule:evenodd;fill:#000000;fill-opacity:.50625" inkscape:connector-curvature="0" d="m186.03 98.853 12.05-2.609-5.24 43.899 9.95-44.944-7.33-3.659-7.34 6.793-2.09 0.52z"/>
  <path id="path9786" style="fill-rule:evenodd;fill:#000000;fill-opacity:.50625" inkscape:connector-curvature="0" d="m81.221 68.544 5.24 1.045 1.05 21.428 2.62-13.066 4.72-5.226h-4.2l-2.62-4.704-6.81 0.523z"/>
  <path id="path9787" style="fill-rule:evenodd;fill:#000000;fill-opacity:.50625" inkscape:connector-curvature="0" d="m98.511 71.157 5.24 4.704 6.82 31.362-0.53-35.021 8.91-10.453-10.48 9.408-7.34-3.658-2.62 3.658z"/>
  <path id="path9788" style="fill-rule:evenodd;fill:#000000;fill-opacity:.50625" inkscape:connector-curvature="0" d="m201.22 137.01 3.15-17.25 8.38-3.66 8.91 4.71 2.09-6.28-10.48-2.61-7.33 2.61-4.72 22.48z"/>
  <path id="path9789" style="fill-rule:evenodd;fill:#000000;fill-opacity:.50625" inkscape:connector-curvature="0" d="m253.62 96.244 20.96-38.676-0.52-7.839-10.48 1.568 6.29 5.226-16.25 39.721z"/>
  <path id="path9790" style="fill-rule:evenodd;fill:#000000;fill-opacity:.50625" inkscape:connector-curvature="0" d="m264.63 80.042 9.43 2.091-4.72 14.63 11.53-17.766-16.24 1.045z"/>
  <path id="path9791" style="fill-rule:evenodd;fill:#000000;fill-opacity:.50625" inkscape:connector-curvature="0" d="m237.9 71.68 8.91 6.271-2.62 21.432 7.34-27.703-4.19-2.091-9.44 2.091z"/>
  <path id="path9792" style="fill-rule:evenodd;fill:#000000;fill-opacity:.50625" inkscape:connector-curvature="0" d="m226.9 76.906-8.91 33.447 5.24-31.356 12.05-5.227-8.38 3.136z"/>
  <path id="path9793" style="fill-rule:evenodd;fill:#000000;fill-opacity:.50625" inkscape:connector-curvature="0" d="m226.37 57.046 7.34 2.09 1.57 8.363 2.62-11.499 6.29-6.794-8.38 5.749-9.44 2.091z"/>
  <path id="path9794" style="fill-rule:evenodd;fill:#000000;fill-opacity:.50625" inkscape:connector-curvature="0" d="m252.05 49.729-5.24 19.86 9.43-13.066-4.19-6.794z"/>
  <path id="path9797" style="fill-rule:evenodd;fill:#000000;fill-opacity:.50625" inkscape:connector-curvature="0" d="m223.75 35.095 9.96 6.794-2.1 10.976 8.91-12.544v-4.181l-16.77-1.045z"/>
  <path id="path9798" style="fill-rule:evenodd;fill:#000000;fill-opacity:.50625" inkscape:connector-curvature="0" d="m210.65 36.14 1.58 56.445-6.82-55.922-16.24-0.523 16.24-4.181 5.24 4.181z"/>
  <path id="path9799" style="fill-rule:evenodd;fill:#000000;fill-opacity:.50625" inkscape:connector-curvature="0" d="m188.65 37.185-0.53 18.815 3.67-21.951-10.48-14.111-3.14 2.613 10.48 14.634z"/>
  <path id="path9800" style="fill-rule:evenodd;fill:#000000;fill-opacity:.50625" inkscape:connector-curvature="0" d="m202.27 11.053 6.81 3.659 2.62 31.358 2.62-33.971-4.71-2.091-4.2-1.568-3.14 2.613z"/>
  <path id="path9801" style="fill-rule:evenodd;fill:#000000;fill-opacity:.50625" inkscape:connector-curvature="0" d="m230.04 19.938 3.67 4.704v8.885l7.34-8.362-11.01-5.227z"/>
  <path id="path9802" style="fill-rule:evenodd;fill:#000000;fill-opacity:.50625" inkscape:connector-curvature="0" d="m166.64 35.095 11 4.704 3.15 14.111-1.58-17.247-12.57-1.568z"/>
  <path id="path9803" style="fill-rule:evenodd;fill:#000000;fill-opacity:.50625" inkscape:connector-curvature="0" d="m149.87 18.893 18.34 4.181v12.021l5.24-14.634-23.58-1.568z"/>
  <path id="path9804" style="fill-rule:evenodd;fill:#000000;fill-opacity:.50625" inkscape:connector-curvature="0" d="m149.34 4.2587 9.96 2.0905 3.14 10.976 2.1-15.157-4.72-2.0903-9.95 2.0906-0.53 2.0906z"/>
  <path id="path9805" style="fill-rule:evenodd;fill:#000000;fill-opacity:.50625" inkscape:connector-curvature="0" d="m127.86 3.2134 6.81 3.1358 3.67 7.3166-5.76 1.568 6.28 2.091 2.1 4.704 1.57-6.272-6.29-13.066-11 1.0452 2.62-0.5226z"/>
  <path id="path9807" style="fill-rule:evenodd;fill:#000000;fill-opacity:.48125" inkscape:connector-curvature="0" d="m86.461 37.185 10.48 4.181 14.15 25.61-11.53-29.268-10.48-2.613-2.62 2.09z"/>
  <path id="path9808" style="fill-rule:evenodd;fill:#000000;fill-opacity:.48125" inkscape:connector-curvature="0" d="m66.551 36.663 5.24 2.09 20.44 33.972-17.82-38.153-10.48-0.523 2.62 2.614z"/>
  <path id="path9809" style="fill-rule:evenodd;fill:#000000;fill-opacity:.48125" inkscape:connector-curvature="0" d="m73.891 14.189 9.95 1.045 11.01 20.906-8.91-26.655-12.05 4.704z"/>
  <path id="path9810" style="fill-rule:evenodd;fill:#000000;fill-opacity:.48125" inkscape:connector-curvature="0" d="m71.271 29.868 7.33-3.658 5.77 2.09 1.57 6.272-5.24-4.704h-9.43z"/>
  <path id="path9811" style="fill-rule:evenodd;fill:#000000;fill-opacity:.48125" inkscape:connector-curvature="0" d="m40.35 23.074 13.621-2.091 10.48 13.589-14.145-10.975-9.956-0.523z"/>
  <path id="path11077" inkscape:connector-curvature="0" sodipodi:nodetypes="cccccccc" style="fill-rule:evenodd;fill:#ffffff;fill-opacity:.25625" d="m15.721 106.17 45.07 258.19 14.67-6.28-28.823-234.66-7.86-8.36-5.765-7.32-6.288-2.61-11.004 1.04z"/>
  <path id="path11699" style="fill-rule:evenodd;fill:#ffffff;fill-opacity:.25625" inkscape:connector-curvature="0" d="m81.221 149.55 14.67 204.35 15.2-4.18 2.1-191.28-16.77-3.66-8.91-2.62-6.29-2.61z"/>
  <path id="path11700" style="fill-rule:evenodd;fill:#ffffff;fill-opacity:.25625" inkscape:connector-curvature="0" d="m136.77 160.53-3.15 188.15 15.2 0.52 4.19 0.52 17.29-195.47-11 4.19-11.53 1.56-11 0.53z"/>
  <path id="path11702" style="fill-rule:evenodd;fill:#ffffff;fill-opacity:.25625" inkscape:connector-curvature="0" d="m264.1 101.47-43.49 259.75 4.19 2.61 4.72 1.05 7.33-0.52 5.25-3.14 2.09-2.61 27.25-250.35-1.57-5.75-5.77-1.04z"/>
  <path id="path11701" style="fill-rule:evenodd;fill:#ffffff;fill-opacity:.25625" inkscape:connector-curvature="0" d="m198.08 143.8-24.63 206.97 7.86 1.57 8.91 1.56 3.67-0.52 51.35-251.91-5.76-1.05-8.39 9.93-8.91 10.98-7.86 9.41-6.29 6.79-5.24 3.66-4.71 2.61z"/>
  <metadata id="metadata113">
    <rdf:RDF>
      <cc:Work>
        <dc:format>image/svg+xml</dc:format>
        <dc:type rdf:resource="http://purl.org/dc/dcmitype/StillImage"/>
        <cc:license rdf:resource="http://creativecommons.org/licenses/publicdomain/"/>
        <dc:publisher>
          <cc:Agent rdf:about="http://openclipart.org/">
            <dc:title>Openclipart</dc:title>
          </cc:Agent>
        </dc:publisher>
      </cc:Work>
      <cc:License rdf:about="http://creativecommons.org/licenses/publicdomain/">
        <cc:permits rdf:resource="http://creativecommons.org/ns#Reproduction"/>
        <cc:permits rdf:resource="http://creativecommons.org/ns#Distribution"/>
        <cc:permits rdf:resource="http://creativecommons.org/ns#DerivativeWorks"/>
      </cc:License>
    </rdf:RDF>
  </metadata>
</svg>
